<svg xmlns="http://www.w3.org/2000/svg" width="863" height="567" viewBox="0 0 863 567">
    <defs>
        <linearGradient id="a" x1="0%" x2="100.001%" y1="49.999%" y2="49.999%">
            <stop offset="0%" stop-color="#F5A7AC"/>
            <stop offset="100%" stop-color="#FFE7E8"/>
        </linearGradient>
    </defs>
    <g fill="none" fill-rule="evenodd">
        <path fill="#FFFBFB" d="M761.063 475l16.88-152.348a3.772 3.772 0 0 0-3.744-4.193h-37.292l12.623-70.038.008.002.773-4.278-.01-.002.002-.008h.002l2.021-11.228a2.443 2.443 0 0 0-1.965-2.837l-9.46-1.712a2.44 2.44 0 0 0-2.832 1.969l-15.886 88.132h-6.366c.163-7.954-.254-13.95-.964-15.514-.002-.006-.007-.012-.009-.019-.002-.002-.002-.004-.002-.006-.183-.39-.487-.768-.896-1.13l-4.176-60.622-4.152.292-4.153.293 3.888 56.465c-3.774-.964-8.212-1.73-12.473-2.304l2.04-34.227-12.357.01.013 17.251-4.139-16.255-11.975 3.06 9.231 28.856c-6.701.248-13.202 2.042-17.774 4.067-1.709.338-3.555 1.334-5.495 3.321-.119.115-.229.23-.325.343-2.034 2.186-3.849 8.676-5.34 16.12h-1.474V116.365c0-11.232-9.089-20.34-20.3-20.34h-37.169a14.576 14.576 0 0 0-10.202-4.148h-62.24l.001-17.174c0-8.729-7.066-15.806-15.778-15.806-8.5 0-15.427 6.735-15.763 15.168v.012l-.002.031v.015c0 .01 0 .02-.002.031v.015c0 .017 0 .035-.002.052v.069c-.002.006-.002.013-.002.019v.075c-.002.006-.002.013-.002.019v.106c-.002.013-.002.023-.002.036v17.332h-68.23c-3.967 0-7.566 1.58-10.202 4.149h-23.204c13.719-17.857 27.424-35.8 44.464-51.693C471.213 2.764 515.402 1.264 564.28.042 565.358.015 566.427 0 567.502 0c66.685 0 131.84 51.564 148.968 116.199 7.926 29.905 7.401 64.981 36.45 83.416 12.75 8.09 27.03 11.585 41.358 16.673 29.151 10.351 41.268 32.922 40.935 55.082-.819 54.181-38.01 55.804-26.31 97.851 8.171 29.365 35.174 44.405 24.728 73.32-7.724 21.375-39.028 29.645-72.568 32.459m-698.727-1.32c-34.92 0-72.472-.526-59.83-31.138 11.66-28.238 45.091-27.208 70.207-39.012 29.828-14.018 58.436-38.513 45.242-74.51-11.963-32.647-16.03-60.456 11.87-87.044 29.694-28.293 71.893-39.52 110.686-48.956.15-.035.3-.07.45-.108 1.39 3.474 4.782 5.927 8.745 5.927h80.63c5.203 0 9.419-4.226 9.419-9.437v-44.281a172.637 172.637 0 0 0 8.166-7.907v161.01l-.25-.035v56.349l.25.033v65.773c-49.687-38.258-85.383-94.985-96.67-156.828l-2.165.396c6.24 34.156 19.84 66.746 39.09 95.578-6.05-1.68-10.781-2.712-16.555-4.86-2.044-.762-4.145-1.468-6.272-2.032-7.2-8.453-23.757-27.802-24.784-28.14-1.14-.374-10.19-30.204-17.076-40.601a3.587 3.587 0 0 0-.665-1.194 11.782 11.782 0 0 0-1.22-1.19 5.307 5.307 0 0 0-1.038-.821c-3.734-2.737-10.54-5.781-19.085-5.781-.377 0-.757.006-1.142.019-7.808.246-29.074 1.536-31.45 6.77-1.21 2.67-2.513 29.954-.752 39.46v.003a.342.342 0 0 1 .006.023v.007l.006.029c1.336 7.102 4.758 24.7 4.758 28.947 0 3.449-1.503 5.298-1.497 6.532.003.284.084.537.284.767l.014.016a2.382 2.382 0 0 0 .371.334c.002.002.007.004.01.009l.011.006s0 .002.002.002l.019.015c-1.71 3.778-5.268 12.917-4.063 21.362 1.588 10.97 5.622 11.562 5.849 15.597 1.99 35.309 7.176 44.896 6.705 52.313-.192 3.032 4.912 5.044 9.446 5.044 3.273 0 6.249-1.048 6.73-3.517 1.359-6.938 5.16-34.494 7.037-54.971 1.119-12.21-1.659-24.438-4.082-32.323 6.862-.263 16.661-1.96 17.199-3.965.873-3.238-1.327-3.117-1.625-6.514-.298-3.394-1.899-25.792.091-29.047 1.209-1.975 2.413-5.186 3.455-8.614 3.403 7.986 7.797 17.464 10.76 20.757 4.03 4.476 13.26 11.94 21.196 18.08-1.115.32-2.213.862-2.604 1.887-.276.725-.13 1.558.183 2.29 1.146 2.667 4.182 4.086 7.012 5.007a52.636 52.636 0 0 0 11.473 2.36c.223.72.664 1.692 1.694 2.164.862.395 1.84.658 2.756.896 1.017.26 2.188.248 2.936.991.284.28.471.641.676.986a11.128 11.128 0 0 0 4.248 4.119c.288.155.62.296.934.296.144 0 .285-.029.417-.104.002-.204.006-.411.01-.616.292.094.467.386.698.587a.749.749 0 0 0 .463.175c.141 0 .268-.054.33-.183l.02-.385a118.34 118.34 0 0 0-1.363-7.238c-.092-.422-.188-.845-.377-1.23-.148-.302-.352-.574-.555-.841a50.032 50.032 0 0 0 9.298-2.353c16.086 23.784 36.024 44.96 58.853 62.297v49.668c-138.239.177-267.553.896-285.585.896M499.597 83.778c-4.89 0-8.851-3.971-8.851-8.869a8.864 8.864 0 0 1 7.657-8.79c-.043.02-.09.036-.137.055.43-.065.858-.132 1.304-.134h.027c4.889 0 8.85 3.969 8.85 8.869v.04c-.015 2.682-1.527 5.338-3.415 6.958 0-.002.002-.002.004-.002a8.798 8.798 0 0 1-5.439 1.873"/>
        <path fill="#FDDDDD" d="M845.974 354C820.78 412.856 772.208 460.925 714 486.977l.898 2.023c58.71-26.28 107.668-74.725 133.102-134.126l-2.026-.874"/>
        <path fill="#FDDDDD" d="M840 370c8.858-7.252 14.918-17.728 16.732-28.922.445-2.743.535-5.868-1.34-7.947-.514-.57-1.194-1.043-1.969-1.12-1.242-.123-2.339.776-3.168 1.696-4.406 4.87-5.934 11.605-6.691 18.083-.756 6.473-2.195 11.226-3.564 18.21M828.583 392c5.462-10.559 6.867-23.073 3.88-34.544-.73-2.811-1.964-5.842-4.648-7.072-.738-.337-1.596-.513-2.37-.273-1.252.39-1.923 1.699-2.336 2.92-2.181 6.463-.805 13.542 1.205 20.057 2.008 6.518 2.632 11.66 4.269 18.912M811.463 416c5.934-9.828 8.539-22.086 7.188-33.828-.329-2.879-1.075-6.037-3.288-7.579-.605-.423-1.335-.698-2.039-.554-1.136.238-1.866 1.455-2.361 2.616-2.619 6.156-2.194 13.348-1.154 20.059 1.042 6.71 1.02 11.89 1.654 19.286M791.462 438c5.935-9.829 8.539-22.083 7.19-33.83-.331-2.877-1.077-6.037-3.288-7.575-.607-.426-1.338-.703-2.041-.555-1.137.235-1.867 1.456-2.362 2.617-2.617 6.154-2.192 13.349-1.152 20.058 1.042 6.71 1.019 11.89 1.653 19.285M761 463c6.611-8.98 10.23-20.716 9.989-32.402-.058-2.863-.491-6.052-2.486-7.816-.547-.484-1.226-.838-1.917-.775-1.117.102-1.935 1.215-2.516 2.3-3.081 5.746-3.321 12.859-2.922 19.567.397 6.706-.092 11.788-.148 19.126"/>
        <path fill="#C4E6F0" d="M736 477c7.794-7.608 12.825-18.223 13.892-29.299.26-2.714.175-5.783-1.674-7.713-.507-.53-1.163-.956-1.882-.986-1.157-.05-2.12.893-2.839 1.841-3.805 5.025-4.851 11.713-5.195 18.104-.348 6.39-1.42 11.13-2.302 18.053"/>
        <path fill="#FDDDDD" d="M822 400.365c11.78 1.89 24.49-.483 35.081-6.55 2.599-1.489 5.288-3.496 5.839-6.3.15-.77.114-1.6-.317-2.238-.691-1.024-2.153-1.254-3.459-1.275-6.923-.098-13.578 3.221-19.52 6.953-5.938 3.732-10.863 5.801-17.624 9.41M808 419.007c10.912 4.603 23.76 5.256 35.464 1.804 2.868-.85 5.957-2.182 7.17-4.793.334-.715.498-1.538.238-2.26-.418-1.164-1.77-1.73-3.026-2.054-6.66-1.717-13.894-.027-20.538 2.229-6.645 2.26-11.904 3.13-19.308 5.074M786 440.643c9.737 6.211 22.165 9.168 34.308 8.165 2.977-.247 6.264-.896 7.98-3.058.472-.595.798-1.313.692-2.022-.174-1.14-1.381-1.908-2.544-2.433-6.164-2.794-13.577-2.58-20.529-1.736-6.954.842-12.27.668-19.907 1.084M757 464.533c11.042 4.246 23.935 4.608 35.587.996 2.856-.885 5.921-2.252 7.077-4.818.32-.706.467-1.509.19-2.207-.446-1.125-1.812-1.646-3.082-1.936-6.712-1.532-13.924.27-20.531 2.61-6.61 2.342-11.86 3.302-19.241 5.355"/>
        <path fill="#C4E6F0" d="M732 480c8.03 8.81 19.618 14.868 31.98 16.72 3.035.456 6.484.557 8.774-1.29.629-.508 1.15-1.182 1.234-1.947.131-1.232-.865-2.32-1.88-3.148-5.391-4.39-12.832-5.939-19.988-6.719-7.153-.777-12.402-2.229-20.12-3.616"/>
        <path fill="#F9ADAD" d="M705.075 231c-.3-.017-.544-.297-.566-.658l-.212-3.582c-.024-.391.224-.73.554-.757.326-.038.616.266.64.658l.212 3.582c.024.391-.224.73-.554.757h-.074"/>
        <path fill="#FDD9D9" d="M719 374.414l-8.046.586L702 240.586l4.023-.293 4.023-.293L719 374.414"/>
        <path fill="#FDD9D9" d="M706.062 230l-1.62.123L702 242l8-.613L706.062 230"/>
        <path fill="#FDDDDD" d="M247 263.397C262.01 344.62 319.128 416.982 395.084 451l.916-2.01C320.735 415.3 264.045 343.482 249.189 263l-2.189.397"/>
        <path fill="#FDDDDD" d="M253.03 280c-6.402-9.239-9.639-21.07-8.935-32.666.172-2.843.741-5.985 2.846-7.641.578-.454 1.284-.773 1.989-.676 1.138.157 1.928 1.302 2.478 2.406 2.922 5.858 2.89 12.934 2.221 19.574-.67 6.643-.37 11.716-.6 19.003M261.396 301c-2.779-10.776-1.371-22.51 3.882-32.389 1.288-2.42 3.09-4.941 5.845-5.516.756-.16 1.589-.143 2.257.238 1.075.61 1.416 1.946 1.532 3.144.625 6.36-2.184 12.553-5.46 18.102-3.276 5.548-4.967 10.122-8.056 16.421M271.987 330c-3.9-10.903-3.985-23.322-.231-34.284.919-2.689 2.31-5.543 4.829-6.483.693-.258 1.476-.345 2.148-.034 1.085.507 1.564 1.856 1.819 3.092 1.348 6.56-.55 13.374-2.963 19.57-2.414 6.197-3.453 11.18-5.602 18.139"/>
        <path fill="#C4E6F0" d="M288.989 357c-3.902-10.9-3.987-23.322-.235-34.287.92-2.685 2.31-5.54 4.832-6.479.69-.259 1.474-.348 2.148-.034 1.084.503 1.564 1.856 1.819 3.092 1.346 6.56-.552 13.372-2.963 19.569-2.413 6.197-3.453 11.183-5.601 18.139M311.458 387c-5.485-10.553-6.91-23.062-3.938-34.535.73-2.812 1.96-5.846 4.646-7.078.738-.34 1.593-.516 2.37-.277 1.253.389 1.93 1.696 2.343 2.914 2.193 6.461.826 13.541-1.175 20.06-2.002 6.519-2.618 11.66-4.246 18.916M331.049 408c-5.054-9.41-7.068-21.307-5.56-32.838.37-2.827 1.12-5.941 3.136-7.525.555-.434 1.215-.728 1.841-.611 1.01.192 1.634 1.359 2.046 2.477 2.18 5.93 1.616 12.98.513 19.576-1.104 6.6-1.217 11.664-1.976 18.921"/>
        <path fill="#FDDDDD" d="M264 312c-11.611-.709-23.152-5.738-31.858-13.885-2.135-1.998-4.241-4.52-4.138-7.349.028-.778.25-1.57.801-2.093.886-.843 2.322-.751 3.568-.489 6.598 1.393 12.178 6.036 16.987 10.923 4.809 4.889 9.026 7.947 14.64 12.893M275 333.21c-11.97 2.132-24.958-.098-35.852-6.158-2.67-1.486-5.446-3.506-6.052-6.373-.168-.789-.142-1.643.286-2.305.686-1.063 2.168-1.324 3.5-1.364 7.052-.215 13.886 3.087 20.003 6.825 6.114 3.736 11.167 5.779 18.115 9.376M290 359.56c-11.047 4.227-23.941 4.575-35.593.952-2.856-.886-5.919-2.252-7.075-4.818-.316-.705-.463-1.507-.185-2.204.447-1.121 1.816-1.642 3.084-1.929 6.718-1.521 13.925.283 20.533 2.632 6.608 2.345 11.86 3.307 19.236 5.367M314 389.418c-11.816 1.802-24.539-.622-35.116-6.692-2.593-1.485-5.276-3.493-5.808-6.27-.146-.764-.104-1.585.33-2.213.701-1.01 2.166-1.23 3.474-1.242 6.94-.06 13.588 3.266 19.515 6.996 5.93 3.732 10.854 5.809 17.605 9.42"/>
        <path fill="#C4E6F0" d="M335 411.17c-9.626 6.348-22.015 9.504-34.196 8.71-2.985-.196-6.294-.787-8.055-2.913-.484-.581-.828-1.295-.733-2.001.148-1.138 1.345-1.92 2.498-2.466 6.116-2.885 13.546-2.797 20.527-2.076 6.981.722 12.303.459 19.959.747"/>
        <path fill="#FDDDDD" d="M104.1 377.443c3.638-.164 7.277-.248 10.917-.248 78.193-.006 155.801 37.852 203.228 99.805l1.755-1.33C272.122 413.147 193.923 375.005 115.017 375c-3.673 0-7.346.081-11.017.25l.1 2.193"/>
        <path fill="#FDDDDD" d="M122 375.288c-10.56-4.792-22.865-5.607-33.962-2.247-2.72.823-5.639 2.138-6.727 4.767-.299.724-.436 1.555-.166 2.29.431 1.183 1.74 1.774 2.951 2.116 6.416 1.821 13.286.196 19.579-2.015 6.293-2.21 11.297-3.026 18.325-4.91M145 378.007c-11.48-.196-22.984 3.85-31.755 11.164-2.15 1.792-4.286 4.105-4.244 6.884.01.764.212 1.559.744 2.113.857.894 2.277.917 3.513.754 6.544-.859 12.153-4.98 17.006-9.403 4.856-4.42 9.084-7.096 14.736-11.512M174 384.44c-11.07-1.547-22.68 1.02-32.04 7.089-2.295 1.487-4.638 3.479-4.934 6.183-.081.742.018 1.54.465 2.143.72.967 2.091 1.157 3.305 1.144 6.431-.06 12.348-3.4 17.575-7.12 5.224-3.72 9.635-5.819 15.629-9.438M202 391.441c-11.07-1.548-22.68 1.018-32.04 7.087-2.295 1.488-4.638 3.481-4.934 6.184-.081.744.018 1.54.465 2.143.72.967 2.093 1.157 3.305 1.144 6.431-.06 12.348-3.4 17.575-7.12 5.224-3.722 9.635-5.82 15.629-9.438M238 408.392c-10.777-2.774-22.512-1.363-32.392 3.889-2.42 1.288-4.941 3.091-5.514 5.845-.158.756-.141 1.588.238 2.256.611 1.075 1.946 1.416 3.146 1.53 6.36.625 12.552-2.185 18.101-5.462 5.547-3.276 10.124-4.969 16.421-8.058M265 423.93c-10.582-3.036-22.891-2.471-33.983 1.559-2.718.987-5.63 2.42-6.712 4.793-.296.653-.43 1.382-.157 1.988.436.973 1.746 1.346 2.96 1.517 6.422.903 13.29-1.2 19.577-3.747 6.286-2.548 11.29-3.765 18.315-6.11M156 379c-3.393-10.985-11.136-20.94-21.37-27.476-2.509-1.603-5.541-3.06-8.373-2.33-.779.198-1.53.59-1.931 1.235-.646 1.038-.224 2.398.33 3.534 2.928 6.024 8.902 10.341 14.948 13.863 6.045 3.525 10.108 6.889 16.396 11.174M179 384c-.553-11.844-5.514-23.678-13.7-32.672-2.005-2.205-4.548-4.39-7.434-4.327-.793.017-1.608.233-2.15.784-.872.892-.8 2.358-.55 3.631 1.325 6.745 5.979 12.498 10.897 17.47 4.915 4.975 7.976 9.319 12.937 15.114"/>
        <path fill="#C4E6F0" d="M207.441 394c1.762-11.836-.685-24.563-6.756-35.131-1.487-2.59-3.49-5.27-6.258-5.795-.758-.144-1.578-.1-2.2.338-1.004.703-1.219 2.17-1.227 3.48-.04 6.947 3.29 13.59 7.018 19.513 3.73 5.924 5.808 10.846 9.423 17.595"/>
        <path fill="#FDDDDD" d="M243 410c-.853-11.658-6.343-23.213-15.146-31.895-2.159-2.126-4.879-4.224-7.91-4.1-.834.037-1.683.264-2.24.822-.895.898-.786 2.341-.493 3.59 1.547 6.617 6.57 12.185 11.85 16.979 5.278 4.791 8.593 9.003 13.939 14.604M267.171 425c4.494-10.95 5.058-23.812 1.554-35.5-.857-2.866-2.202-5.946-4.8-7.144-.715-.327-1.529-.489-2.246-.222-1.153.426-1.706 1.783-2.018 3.042-1.66 6.677.062 13.9 2.348 20.535 2.286 6.633 3.182 11.89 5.162 19.289"/>
        <path fill="#FFEDED" d="M363.33 410.59c-11.855-11.232-28.596-16.962-44.745-15.31-10.936 1.12-22.86 7.041-25.268 17.908-1.144 5.176-.743 12.043-5.577 14.076-4.733 1.99-9.303-2.95-14.16-4.6-8.084-2.749-17.313 6.62-14.584 14.807 1.24 3.722 4.35 6.966 4.09 10.888-.352 5.338-6.864 8.123-12.083 7.294-5.216-.83-9.823-3.918-14.94-5.237-5.118-1.32-11.747.004-13.544 5.035-1.612 4.512 1.169 10.572-2.327 13.805-1.498 1.386-3.665 1.67-5.685 1.865-44.312 4.263-93.117 12.318-88.158 20.296 1.356 2.183 4.821 1.485 7.365 1.447 94.321-1.496 179.998-2.923 274.286.009"/>
        <path fill="#E10917" d="M373.921 230.439a56.102 56.102 0 0 1-2.047 5.023l1.997.937a57.513 57.513 0 0 0 2.129-5.226l-2.079-.734zm-4.55 9.851a68.37 68.37 0 0 1-2.894 4.608l1.818 1.256a70.073 70.073 0 0 0 2.986-4.759l-1.91-1.105zm-6.14 8.971a68.973 68.973 0 0 1-3.577 4.097l1.597 1.526a71.174 71.174 0 0 0 3.694-4.229l-1.714-1.394zm-7.471 7.885a60.577 60.577 0 0 1-4.2 3.434l1.311 1.78a62.556 62.556 0 0 0 4.354-3.56l-1.465-1.654zm-8.695 6.45a48.757 48.757 0 0 1-4.77 2.517l.911 2.015a50.395 50.395 0 0 0 4.988-2.631l-1.129-1.902zm-9.786 4.448c-1.71.537-3.446.956-5.205 1.25l.361 2.186c1.864-.312 3.7-.757 5.501-1.323l-.657-2.113zm-10.52 1.736l-.537.004c-1.693 0-3.296-.094-4.815-.27l-.252 2.2a43.868 43.868 0 0 0 5.637.28l-.034-2.214zm-10.593-1.269a31.627 31.627 0 0 1-4.992-1.821l-.926 2.008a33.864 33.864 0 0 0 5.34 1.952l.578-2.139zm-9.606-4.47a35.26 35.26 0 0 1-4.15-3.375l-1.508 1.617a37.487 37.487 0 0 0 4.408 3.583l1.25-1.824zm-7.837-7.31a77.538 77.538 0 0 1-3.333-4.312l-1.782 1.304a79.687 79.687 0 0 0 3.43 4.436l1.685-1.428zm-6.54-8.818c-1.21-1.675-2.368-3.189-3.584-4.423l-1.568 1.56c1.075 1.085 2.181 2.521 3.367 4.163l1.784-1.3zm-7.813-8.132a128.03 128.03 0 0 0-4.34-3.48l-1.336 1.76a127.33 127.33 0 0 1 4.266 3.422l1.41-1.702zm-8.857-6.753a81.094 81.094 0 0 0-4.719-2.99l-1.11 1.912a78.917 78.917 0 0 1 4.591 2.912l1.238-1.834zm-9.655-5.63a70.104 70.104 0 0 0-5.123-2.24l-.802 2.063c1.686.66 3.333 1.38 4.967 2.172l.958-1.994zm-10.393-4.09a100.997 100.997 0 0 0-5.36-1.511l-.54 2.147c1.813.461 3.556.95 5.244 1.478l.656-2.113zm-10.767-2.765a221.835 221.835 0 0 0-5.433-1.075l-.4 2.178c1.867.346 3.656.698 5.376 1.065l.457-2.168zm-10.847-2.042c-1.644-.32-3.312-.876-4.971-1.643l-.922 2.01c1.8.835 3.635 1.449 5.472 1.807l.421-2.174zm-9.556-4.323a36.046 36.046 0 0 1-4.118-3.421l-1.524 1.6a38.001 38.001 0 0 0 4.37 3.63l1.272-1.809zm-7.739-7.398a43.842 43.842 0 0 1-3.097-4.411l-1.876 1.163c1 1.63 2.09 3.178 3.253 4.633l1.72-1.385zm-5.635-9.168a42.8 42.8 0 0 1-1.93-5.03l-2.104.663a45.216 45.216 0 0 0 2.03 5.291l2.004-.924zm-3.191-10.26c-.3-1.76-.48-3.546-.526-5.345l-2.204.057c.048 1.91.24 3.8.557 5.66l2.173-.373zm-.259-10.7a34.856 34.856 0 0 1 1.09-5.243l-2.119-.616a37.577 37.577 0 0 0-.84 3.554 35.97 35.97 0 0 0-.316 2.023l2.185.283zm2.943-10.264a43.054 43.054 0 0 1 2.52-4.75l-1.877-1.16a45.111 45.111 0 0 0-2.65 4.996l2.007.914zm5.583-9.206a64.436 64.436 0 0 1 3.485-4.163l-1.628-1.493a65.593 65.593 0 0 0-3.604 4.308l1.747 1.348zm7.292-8.06a97.382 97.382 0 0 1 4.05-3.667l-1.431-1.684a99.855 99.855 0 0 0-4.143 3.749l1.524 1.601zm8.287-7.14a158.53 158.53 0 0 1 4.377-3.305l-1.294-1.793a158.022 158.022 0 0 0-4.441 3.354l1.358 1.745zm8.862-6.482a263.16 263.16 0 0 1 4.566-3.071l-1.208-1.853a255.976 255.976 0 0 0-4.604 3.098l1.246 1.826zm9.185-6.06a502.012 502.012 0 0 1 4.667-2.942l-1.165-1.883a568.432 568.432 0 0 0-4.683 2.954l1.181 1.87zm9.365-5.858c1.571-.973 3.14-1.94 4.7-2.906l-1.156-1.885c-1.557.965-3.127 1.931-4.7 2.904l1.156 1.887zm9.398-5.83c1.577-.99 3.136-1.98 4.675-2.971l-1.192-1.864a465.8 465.8 0 0 1-4.652 2.958l1.169 1.876zm9.308-6.02a191.424 191.424 0 0 0 4.568-3.161l-1.277-1.805a191.062 191.062 0 0 1-4.518 3.128l1.227 1.838zm9.039-6.482a104.25 104.25 0 0 0 4.324-3.535l-1.44-1.677a101.004 101.004 0 0 1-4.23 3.46l1.346 1.752zm8.427-7.355a53.83 53.83 0 0 0 3.765-4.195l-1.717-1.39a51.105 51.105 0 0 1-3.609 4.021l1.561 1.564zm7-8.84a146.593 146.593 0 0 0 2.814-4.804l-1.92-1.088c-.86 1.535-1.779 3.11-2.772 4.732l1.878 1.16zm5.45-9.706a235.897 235.897 0 0 0 2.487-4.962l-1.978-.977a247.33 247.33 0 0 1-2.465 4.918l1.956 1.021zm4.898-9.941a235.51 235.51 0 0 1 2.442-4.93l-1.962-1.014a234.643 234.643 0 0 0-2.463 4.975l1.983.969zm5.05-9.73a68.403 68.403 0 0 1 2.912-4.587l-1.81-1.267a70.78 70.78 0 0 0-3.005 4.736l1.904 1.118zm6.201-8.89a59.573 59.573 0 0 1 3.671-3.978l-1.546-1.577a61.32 61.32 0 0 0-3.81 4.126l1.685 1.43zm7.68-7.637a81.754 81.754 0 0 1 4.277-3.365L334.41 38a85.7 85.7 0 0 0-4.39 3.455l1.418 1.696z"/>
        <path fill="#8FCAE4" d="M679.278 263L708 371.656 702.537 373 667 266.022 679.278 263"/>
        <path fill="#FCC6C6" d="M639.887 211.291c-9.12 2.294-14.025 13.898-10.93 25.868 3.097 11.969 13.036 19.841 22.156 17.546 9.12-2.291 14.025-13.895 10.93-25.866-3.095-11.968-13.036-19.84-22.156-17.548zm13.71 53.016c-14.49 3.642-29.91-7.438-34.376-24.7-4.464-17.263 3.694-34.272 18.182-37.913 14.49-3.644 29.912 7.435 34.376 24.698 4.464 17.262-3.694 34.271-18.182 37.915z"/>
        <path fill="#C2E5F0" d="M667.378 234.092l8.524 33.035c.428 1.661-.586 3.351-2.268 3.776-1.681.424-3.39-.58-3.82-2.24l-.964-3.733s-4.475-9.435-16.85-5.544c0 0 14.759-1.822 15.263-1.789.5.037-.348-25.307.115-23.505"/>
        <path fill="#FCC6C6" d="M675.073 276.747c-4.204 1.107-8.498-1.522-9.57-5.862 0 0-.497-2.635-1.492-4.093-1.555-2.278-4.73-3.137-10.54-1.607l-1.471-8.47c3.052-1.007 5.25-2.526 7.706-2.349 1.316-.167 2.41-.3 3.325-.411-.01-2.596-.059-6.016-.097-8.637-.039-2.787 3.465-5.92 3.457-7.92-.014-3.592-3.58-7.22.737-7.815l4.247-.583 9.38 37.873c1.072 4.338-1.478 8.768-5.682 9.874M683 261.01l.08 113.99 5.34-.004L695 261l-12 .01M691.82 225.512c.008 12.424 7.5 22.53 16.698 22.523 9.196-.006 16.673-10.122 16.667-22.549-.009-12.424-7.502-22.53-16.7-22.523-9.197.008-16.676 10.124-16.665 22.549zm-9.82.008c-.012-17.922 11.866-32.512 26.478-32.52 14.611-.013 26.51 14.56 26.522 32.48.014 17.92-11.863 32.51-26.476 32.52-14.613.01-26.51-14.56-26.524-32.48z"/>
        <path fill="#C2E5F0" d="M688 231.099l.027 33.822c0 1.703 1.39 3.079 3.105 3.079 1.715-.002 3.105-1.38 3.105-3.081l-.004-3.822s1.95-10.155 14.767-9.423c0 0-14.59 1.832-15.06 1.991-.472.156-5.942-24.41-5.94-22.566"/>
        <path fill="#FCC6C6" d="M690.176 273c4.503-.004 8.161-3.666 8.157-8.166 0 0-.157-2.694.479-4.368.993-2.62 3.971-4.27 10.188-4.275l-.63-8.62c-3.32-.197-5.904-1.112-8.327-.308a597.09 597.09 0 0 0-3.445.454c-.636-2.529-1.438-5.871-2.054-8.433-.653-2.724-4.954-4.872-5.443-6.822-.882-3.499 1.8-7.948-2.689-7.419l-4.412.523.01 39.278c.005 4.502 3.667 8.158 8.166 8.156"/>
        <path fill="#A5D5E9" d="M538.543 101c.13-.539.284-1.084.457-1.634L537.48 99c-.18.573-.341 1.145-.48 1.714l1.543.286"/>
        <path fill="#E10917" d="M541.055 93.424a52.747 52.747 0 0 1 2.296-4.956l-1.961-1.024a55.332 55.332 0 0 0-2.39 5.162l2.055.818zm5.081-9.663a55.816 55.816 0 0 1 3.237-4.409l-1.72-1.387a57.429 57.429 0 0 0-3.366 4.587l1.85 1.21zm6.896-8.476a53.114 53.114 0 0 1 4.049-3.677l-1.403-1.701a55.491 55.491 0 0 0-4.22 3.827l1.574 1.551zm8.46-6.91a50.292 50.292 0 0 1 4.73-2.74l-1.008-1.962a52.269 52.269 0 0 0-4.937 2.861l1.215 1.842zm9.73-4.948a50.252 50.252 0 0 1 5.213-1.646l-.55-2.133a51.753 51.753 0 0 0-5.447 1.72l.784 2.059zm10.58-2.718a53.264 53.264 0 0 1 5.454-.507L587.162 58c-1.942.081-3.835.26-5.68.528l.32 2.181zm10.94-.471c1.783.096 3.607.273 5.47.54l.316-2.18a64.048 64.048 0 0 0-5.666-.56l-.12 2.2zm10.882 1.543l.167.04c1.78.406 3.463.91 5.055 1.493l.764-2.069a44.395 44.395 0 0 0-5.322-1.572l-.174-.04-.49 2.148zm10.174 3.75a39.352 39.352 0 0 1 4.597 2.887l1.305-1.782a42.079 42.079 0 0 0-4.855-3.047l-1.047 1.942zm8.793 6.36a54.925 54.925 0 0 1 3.797 3.937l1.666-1.45a56.501 56.501 0 0 0-3.95-4.094l-1.513 1.606zm7.258 8.208a121.56 121.56 0 0 1 3.22 4.496l1.828-1.24a121.752 121.752 0 0 0-3.278-4.578l-1.77 1.322zm6.305 9.124c1.024 1.56 2.042 3.125 3.073 4.674l1.843-1.218c-1.02-1.535-2.036-3.095-3.063-4.661l-1.853 1.205zm6.254 9.304a84.002 84.002 0 0 0 3.433 4.493l1.712-1.396a82.899 82.899 0 0 1-3.343-4.377l-1.802 1.28zm7.21 8.714a148.616 148.616 0 0 0 3.98 3.975l1.542-1.579c-1.343-1.3-2.659-2.6-3.922-3.919l-1.6 1.523zm8.014 7.846a211.275 211.275 0 0 1 3.972 3.887l1.575-1.547a214.797 214.797 0 0 0-4.011-3.927l-1.536 1.587zm7.76 7.906a63.113 63.113 0 0 1 3.472 4.247l1.778-1.312a65.38 65.38 0 0 0-3.592-4.395l-1.657 1.46zm6.473 8.791a38.34 38.34 0 0 1 2.373 4.866l2.055-.818a40.52 40.52 0 0 0-2.509-5.145l-1.919 1.097zm4.04 10.042a83.615 83.615 0 0 1 1.25 5.358l2.17-.427a85.145 85.145 0 0 0-1.28-5.498l-2.14.567zm2.146 10.785c.24 1.829.42 3.654.542 5.475l2.21-.146a88.252 88.252 0 0 0-.56-5.615l-2.192.286zm.735 10.974l.002.265c0 1.756-.054 3.502-.16 5.233l2.209.133c.109-1.777.163-3.566.163-5.366v-.273l-2.214.008zm-.668 10.977a83.862 83.862 0 0 1-.865 5.433l2.174.415a86.57 86.57 0 0 0 .886-5.575l-2.195-.273zm-2.084 10.795a79.036 79.036 0 0 1-1.58 5.266l2.097.703a80.874 80.874 0 0 0 1.623-5.41l-2.14-.56zm-3.524 10.407a71.685 71.685 0 0 1-2.316 4.978l1.97 1.003a75.12 75.12 0 0 0 2.389-5.13l-2.043-.851zm-5.014 9.756a62.688 62.688 0 0 1-3.09 4.53l1.774 1.318a64.81 64.81 0 0 0 3.197-4.688l-1.881-1.16zm-6.575 8.751a52.197 52.197 0 0 1-3.884 3.844l1.473 1.644a53.838 53.838 0 0 0 4.05-4.007l-1.64-1.48zm-8.161 7.231c-1.5 1.051-3.05 2-4.648 2.84l1.035 1.949a45.453 45.453 0 0 0 4.887-2.987l-1.274-1.802zm-9.61 4.912c-1.605.492-3.387.907-5.31 1.243l.383 2.169c1.999-.348 3.869-.782 5.58-1.308l-.653-2.104zm-10.769 1.962a98.381 98.381 0 0 1-5.521.35l.08 2.203c1.939-.07 3.828-.19 5.649-.36l-.208-2.193zm-11.068.422a147.588 147.588 0 0 1-5.55-.163l-.11 2.2c1.898.092 3.781.148 5.64.165l.02-2.202zm-11.097-.532a160.78 160.78 0 0 1-5.534-.557l-.26 2.188c1.858.219 3.73.408 5.607.565l.187-2.196zm-11.043-1.302c-1.867-.285-3.697-.6-5.476-.942l-.419 2.165c1.808.346 3.666.665 5.558.955l.337-2.178zm-10.9-2.1a96.924 96.924 0 0 1-5.348-1.426l-.637 2.11a98.286 98.286 0 0 0 5.469 1.458l.515-2.142z"/>
        <path fill="#A5D5E9" d="M579 221.69a100.899 100.899 0 0 1-3.58-.69l-1.42 1.268c1.176.251 2.443.496 3.79.732l1.21-1.31"/>
        <path fill="#F09D9D" d="M731.126 355L717 352.417l21.836-122.407c.238-1.327 1.493-2.21 2.806-1.97l9.372 1.713c1.313.24 2.186 1.513 1.946 2.84L731.126 355"/>
        <path fill="#F65761" d="M749.98 244L736 241.39l1.984-11.359c.235-1.34 1.477-2.234 2.776-1.991l9.274 1.732c1.3.243 2.164 1.529 1.927 2.87L749.979 244"/>
        <path fill="#9FC5DB" d="M748.633 249l-.008-.002.74-4.998.01.002-.742 4.998"/>
        <path fill="#FFC6C6" d="M750.23 249L736 246.368l.77-4.368 14.23 2.632-.77 4.368"/>
        <path fill="#FFD2D2" d="M741.305 383L718 373.835 767.695 248 791 257.167 741.305 383"/>
        <path fill="#F2A8A8" d="M782 258.424l7.239 3.576.761-2.422-7.237-3.578M779 264.423l7.239 3.577.761-2.423-7.239-3.577M776 271.424l7.237 3.576.763-2.424-7.239-3.576M771 276.188L782.208 281l.792-2.188L771.792 274M771 284.424l7.239 3.576.761-2.424-7.239-3.576M770 291.424l7.237 3.576.763-2.424-7.239-3.576M767 298.42l7.237 3.58.763-2.423-7.237-3.577M761 303.19l11.209 4.81.791-2.19-11.207-4.81M762 311.424l7.237 3.576.763-2.424-7.239-3.576M759 317.422l7.237 3.578.763-2.424-7.237-3.576"/>
        <path fill="#CDEAF1" d="M756 324.424l7.239 3.576.761-2.424-7.239-3.576M750 329.19l11.207 4.81.793-2.19-11.209-4.81M750 337.42l7.237 3.58.763-2.423-7.237-3.577M748 343.424l7.239 3.576.761-2.422-7.237-3.578M746 349.424l7.239 3.576.761-2.424-7.239-3.576M739 355.19l11.207 4.81.793-2.19-11.209-4.81M740 363.423l7.239 3.577.761-2.423-7.237-3.577M738 370.423l7.239 3.577.761-2.423-7.239-3.577M735 376.424l7.237 3.576.763-2.424-7.239-3.576"/>
        <path fill="#FFB9BD" d="M757.496 497h-115.99l-19.483-175.809a3.771 3.771 0 0 1 3.744-4.191h147.466a3.771 3.771 0 0 1 3.744 4.191L757.497 497"/>
        <path fill="#FEE1E1" d="M613.228 505.171c69.835.944 139.671 1.887 209.508 2.829 2.343.03 9.731-2.234-3-10.374-10.783-6.894-44.857-.691-44.857-.691s7.932-3.153 7.894-7.223c-.035-4.07-3.146-7.646-6.88-9.333-3.736-1.689-7.988-1.81-12.086-1.58a77.661 77.661 0 0 0-24.343 5.402c3.288-2.003 4.29-6.917 2.047-10.03-2.243-3.114-7.257-3.767-10.233-1.334 5.235-7.029 13.325-38.176-11.543-51.902-31.17-17.204-54.843-3.048-59.895 7.309-2.561-10.165-14.325-17.862-22.069-19.766-17.669-4.35-29.176-3.062-45.67 4.575-5.835 2.703-13.649 11.93-17.526 17.027-6.074 7.984-7.022 18.599-7.355 28.594a386.457 386.457 0 0 0-.104 22.515l46.112 23.982"/>
        <path fill="#E9E7E9" d="M654 516c0 3.865-70.514 7-157.5 7-86.984 0-157.5-3.135-157.5-7s70.516-7 157.5-7c86.986 0 157.5 3.135 157.5 7"/>
        <path fill="#F77A7A" d="M500.999 83.834c-4.96 0-8.977-3.963-8.977-8.852 0-4.891 4.017-8.853 8.977-8.853 4.957 0 8.975 3.962 8.975 8.853 0 4.889-4.018 8.852-8.975 8.852m0-24.834C492.164 59 485 66.065 485 74.777V95h32s-.004-16.06 0-20.223C517 66.065 509.834 59 500.999 59"/>
        <path fill="#C79DA0" d="M505.646 81c1.854-1.634 3.34-4.312 3.354-7.017a9.018 9.018 0 0 1-3.35 7.015c-.002 0-.004 0-.004.002M499 65.135c.047-.02.092-.036.135-.055.375-.05.757-.078 1.146-.08-.438.002-.86.07-1.281.135"/>
        <path fill="#E10917" d="M488.838 90H484V73.02v-.046-.016-.031-.017-.03-.017c0-.013 0-.023.002-.035v-.013-.045-.013-.035c0-.006 0-.012.002-.018v-.027-.02-.028c0-.006 0-.012.002-.018v-.027-.02-.021c.002-.017.002-.035.002-.052v-.014c.002-.01.002-.021.002-.031v-.015l.003-.03v-.013c.276-6.864 5.046-12.578 11.485-14.388-4.269 2.801-6.66 7.584-6.66 13.021V90m16.464-9.86c2.076-1.599 3.413-4.084 3.426-6.879v-.04c0-4.844-3.978-8.768-8.887-8.768h-.027a9.516 9.516 0 0 0-1.172.078c1.208-.479 1.344-.799 3.47-.799 4.908 0 8.888 3.927 8.888 8.77 0 4.388-2.27 6.768-5.698 7.637"/>
        <path fill="#F0F0F0" d="M625.725 516H369.273C358.078 516 349 506.877 349 495.625v-381.25C349 103.123 358.078 94 369.273 94h256.452C636.922 94 646 103.123 646 114.375v381.25c0 11.252-9.078 20.375-20.275 20.375"/>
        <path fill="#FFE0E0" d="M366 501h263V113H366z"/>
        <path fill="#FFFFFE" d="M375 489h243V124H375z"/>
        <path fill="#E10917" d="M592 119H400v-12.315C400 98.575 406.576 92 414.688 92h162.624C585.424 92 592 98.575 592 106.685V119"/>
        <path fill="#F77A7A" d="M592 119H400v-11.644c0-7.528 5.222-13.813 12.195-15.356a15.77 15.77 0 0 0-4.777 11.337v11.642H592V119"/>
        <path fill="#F6ADB2" d="M423.501 206C406.103 206 392 191.898 392 174.5s14.103-31.5 31.501-31.5C440.897 143 455 157.102 455 174.5S440.897 206 423.501 206"/>
        <path fill="#E10917" d="M459.907 173h-1.09c0 9.62-3.896 18.317-10.197 24.621-6.304 6.302-15.002 10.198-24.619 10.198-9.619 0-18.317-3.896-24.62-10.198-6.304-6.306-10.2-15.002-10.2-24.621 0-9.62 3.896-18.317 10.2-24.621 6.303-6.302 15.001-10.198 24.62-10.198 9.617 0 18.315 3.896 24.619 10.198 6.301 6.304 10.197 15.002 10.197 24.621H461c-.002-20.434-16.565-37-36.999-37C403.565 136 387 152.564 387 173s16.565 37 37.001 37c20.434 0 36.997-16.566 36.999-37h-1.093"/>
        <path fill="#FFFFFE" d="M429.692 174.892c3.095-2.031 5.148-5.53 5.148-9.514 0-6.283-5.079-11.378-11.339-11.378-6.264 0-11.34 5.095-11.34 11.378 0 3.985 2.054 7.483 5.147 9.514-7.049 1.68-12.308 8-12.308 15.587v9.451c5.196 3.8 11.576 6.07 18.501 6.07 6.923 0 13.303-2.27 18.499-6.07v-9.451c0-7.587-5.26-13.907-12.308-15.587"/>
        <path fill="#FD2E3B" d="M473.502 145l1.39 2.962 3.108.476-2.25 2.307.533 3.255-2.781-1.536-2.783 1.536.533-3.255-2.252-2.307 3.11-.476 1.392-2.962M488.5 145l1.391 2.962 3.109.476-2.25 2.307.533 3.255-2.783-1.536-2.783 1.536.533-3.255-2.25-2.307 3.109-.476L488.5 145M504.501 145l1.39 2.962 3.109.476-2.251 2.307.532 3.255-2.78-1.536-2.782 1.536.532-3.255-2.251-2.307 3.11-.476L504.5 145M518.502 145l1.39 2.962 3.108.476-2.25 2.307.533 3.255-2.781-1.536-2.785 1.536.533-3.255-2.25-2.307 3.109-.476 1.393-2.962M534.5 145l1.39 2.962 3.11.476-2.252 2.307.533 3.255-2.781-1.536-2.783 1.536.533-3.255-2.25-2.307 3.109-.476L534.5 145"/>
        <path fill="#EFEFEF" d="M502.785 165h-31.572c-1.222 0-2.213-1.12-2.213-2.499 0-1.382.991-2.501 2.213-2.501h31.572c1.224 0 2.215 1.12 2.215 2.501 0 1.38-.991 2.499-2.215 2.499M596.821 178h-23.64c-1.205 0-2.181-1.12-2.181-2.499 0-1.382.976-2.501 2.18-2.501h23.641c1.203 0 2.179 1.12 2.179 2.501 0 1.38-.976 2.499-2.179 2.499M562.798 178h-91.596c-1.216 0-2.202-1.12-2.202-2.499 0-1.382.986-2.501 2.202-2.501h91.596c1.216 0 2.202 1.12 2.202 2.501 0 1.38-.986 2.499-2.202 2.499M596.785 190h-126.57c-1.223 0-2.215-1.117-2.215-2.5 0-1.38.992-2.5 2.215-2.5h126.57c1.223 0 2.215 1.12 2.215 2.5 0 1.383-.992 2.5-2.215 2.5M596.818 203h-39.636c-1.205 0-2.182-1.12-2.182-2.501 0-1.38.977-2.499 2.182-2.499h39.636c1.205 0 2.182 1.12 2.182 2.499 0 1.382-.977 2.501-2.182 2.501M546.806 203h-75.612c-1.211 0-2.194-1.12-2.194-2.501 0-1.38.983-2.499 2.194-2.499h75.612c1.211 0 2.194 1.12 2.194 2.499 0 1.382-.983 2.501-2.194 2.501M596.81 165h-83.618c-1.211 0-2.192-1.12-2.192-2.499 0-1.382.98-2.501 2.192-2.501h83.619c1.208 0 2.189 1.12 2.189 2.501 0 1.38-.98 2.499-2.19 2.499"/>
        <path fill="#FEDFE1" d="M423.501 294C406.103 294 392 279.898 392 262.5c0-17.395 14.103-31.5 31.501-31.5C440.897 231 455 245.105 455 262.5c0 17.398-14.103 31.5-31.499 31.5"/>
        <path fill="#FFFFFE" d="M429.692 262.891c3.095-2.03 5.148-5.528 5.148-9.515 0-6.283-5.079-11.376-11.339-11.376-6.264 0-11.34 5.093-11.34 11.376 0 3.987 2.054 7.483 5.147 9.515-7.049 1.68-12.308 8.003-12.308 15.59v9.451c5.196 3.798 11.576 6.068 18.501 6.068 6.923 0 13.303-2.27 18.499-6.068v-9.452c0-7.586-5.26-13.907-12.308-15.589"/>
        <path fill="#FD2E3B" d="M473.502 234l1.39 2.962 3.108.476-2.25 2.305.533 3.257-2.781-1.538-2.783 1.538.533-3.257-2.252-2.305 3.11-.476 1.392-2.962M488.5 234l1.391 2.962 3.109.476-2.25 2.305.533 3.257-2.783-1.538-2.783 1.538.533-3.257-2.25-2.305 3.109-.476L488.5 234M504.501 234l1.39 2.962 3.109.476-2.251 2.305.532 3.257-2.78-1.538-2.782 1.538.532-3.257-2.251-2.305 3.11-.476L504.5 234"/>
        <path fill="#FFECED" d="M521.283 243l-2.781-1.537-2.785 1.537.533-3.256-2.25-2.305 3.109-.475 1.393-2.964 1.39 2.964 3.108.475-2.25 2.305.533 3.256M537.28 243l-2.78-1.537-2.783 1.537.533-3.256-2.25-2.305 3.109-.475L534.5 234l1.39 2.964 3.11.475-2.252 2.305.533 3.256"/>
        <path fill="#EFEFEF" d="M526.809 255H471.19c-1.21 0-2.191-1.12-2.191-2.5s.982-2.5 2.191-2.5h55.618c1.21 0 2.191 1.12 2.191 2.5s-.982 2.5-2.191 2.5M597.779 266h-14.813a53.134 53.134 0 0 0-5.246-4.726l-.353-.274h20.412c1.226 0 2.221 1.12 2.221 2.501 0 1.38-.995 2.499-2.221 2.499m-36.293 0H536.2a36.447 36.447 0 0 1 5.772-1.659A34.92 34.92 0 0 1 561.486 266m-46.813 0h-10.452c-1.226 0-2.221-1.12-2.221-2.499 0-1.382.995-2.501 2.221-2.501h16.018a51.557 51.557 0 0 0-5.566 5M493.807 266H471.19c-1.21 0-2.191-1.12-2.191-2.499 0-1.382.981-2.501 2.191-2.501h22.616c1.212 0 2.193 1.12 2.193 2.501 0 1.38-.981 2.499-2.193 2.499M596.785 278h-4.79a57.401 57.401 0 0 0-2.765-5h7.555c1.223 0 2.215 1.12 2.215 2.5s-.992 2.5-2.215 2.5m-18.206 0h-61.194a42.794 42.794 0 0 1 4.12-5h52.925a42.384 42.384 0 0 1 4.149 5m-74.605 0h-33.76c-1.222 0-2.214-1.12-2.214-2.5s.992-2.5 2.215-2.5h36.53a59.497 59.497 0 0 0-2.77 5M584.456 292H570.19c-1.208 0-2.189-1.12-2.189-2.501 0-1.38.98-2.499 2.19-2.499h12.6a47.969 47.969 0 0 1 1.666 5m11.458-.002a64.34 64.34 0 0 0-1.258-4.998h1.155c1.208 0 2.189 1.12 2.189 2.499 0 1.342-.925 2.437-2.086 2.499M561.787 292H511.62a47.118 47.118 0 0 1 1.696-5h48.47c1.222 0 2.213 1.12 2.213 2.499 0 1.382-.991 2.501-2.213 2.501m-61.753 0h-28.82c-1.223 0-2.214-1.12-2.214-2.501 0-1.38.991-2.499 2.213-2.499h30.098a61.806 61.806 0 0 0-1.277 5M596.8 255h-40.613a43.85 43.85 0 0 0-7.778-.696c-2.599 0-5.212.232-7.826.696h-3.382c-1.215 0-2.201-1.12-2.201-2.5s.986-2.5 2.2-2.5h59.6c1.214 0 2.2 1.12 2.2 2.5s-.986 2.5-2.2 2.5"/>
        <path fill="#FEDFE1" d="M423.501 381C406.103 381 392 366.895 392 349.5c0-17.398 14.103-31.5 31.501-31.5C440.897 318 455 332.102 455 349.5c0 17.395-14.103 31.5-31.499 31.5"/>
        <path fill="#FFFFFE" d="M429.692 350.89c3.095-2.03 5.148-5.527 5.148-9.512 0-6.285-5.079-11.378-11.339-11.378-6.264 0-11.34 5.093-11.34 11.378 0 3.985 2.054 7.483 5.147 9.512C410.26 352.572 405 358.892 405 366.48v9.451c5.196 3.8 11.576 6.07 18.501 6.07 6.923 0 13.303-2.27 18.499-6.07v-9.451c0-7.587-5.26-13.907-12.308-15.589"/>
        <path fill="#FD2E3B" d="M473.502 322l1.39 2.964 3.108.473-2.25 2.307.533 3.256-2.781-1.54-2.783 1.54.533-3.256-2.252-2.307 3.11-.473 1.392-2.964M488.5 322l1.391 2.964 3.109.473-2.25 2.307.533 3.256-2.783-1.54-2.783 1.54.533-3.256-2.25-2.307 3.109-.473L488.5 322M504.501 322l1.39 2.964 3.109.473-2.251 2.305.532 3.258-2.78-1.54-2.782 1.54.532-3.258-2.251-2.305 3.11-.473L504.5 322"/>
        <path fill="#1F5B99" d="M518.502 322l1.39 2.964 3.108.473-2.25 2.305.533 3.258-2.781-1.54-2.785 1.54.533-3.258-2.25-2.305 3.109-.473 1.393-2.964"/>
        <path fill="#FFECED" d="M537.28 331l-2.78-1.54-2.783 1.54.533-3.258-2.25-2.305 3.109-.473L534.5 322l1.39 2.964 3.11.473-2.252 2.305.533 3.258"/>
        <path fill="#EFEFEF" d="M502.785 342h-31.572c-1.222 0-2.213-1.12-2.213-2.501 0-1.38.991-2.499 2.213-2.499h31.572c1.224 0 2.215 1.12 2.215 2.499 0 1.382-.991 2.501-2.215 2.501M585.308 354h-56.122c-1.208 0-2.186-1.12-2.186-2.499 0-1.382.978-2.501 2.186-2.501h2.343c5.45 2.31 11.206 3.493 17.051 3.493 2.91 0 5.847-.294 8.772-.888a44.315 44.315 0 0 0 8.407-2.605h15.932l3.617 5m13.405-1.259L596.007 349h.809c1.206 0 2.184 1.12 2.184 2.501 0 .45-.103.873-.287 1.24M518.785 354h-47.57c-1.223 0-2.215-1.12-2.215-2.499 0-1.382.992-2.501 2.215-2.501h47.57c1.223 0 2.215 1.12 2.215 2.501 0 1.38-.992 2.499-2.215 2.499M595.985 367H471.21c-1.22 0-2.21-1.12-2.21-2.5s.99-2.5 2.21-2.5h121.407l3.383 4.621a7.752 7.752 0 0 0-.015.379M595.811 379h-96.62c-1.21 0-2.191-1.12-2.191-2.501 0-1.38.98-2.499 2.19-2.499h96.621c1.209 0 2.189 1.12 2.189 2.499 0 1.382-.98 2.501-2.189 2.501M489.803 379h-18.608c-1.212 0-2.195-1.12-2.195-2.501 0-1.38.983-2.499 2.195-2.499h18.608c1.214 0 2.197 1.12 2.197 2.499 0 1.382-.983 2.501-2.197 2.501M596.81 342h-7.536l-3.626-5h11.163c1.208 0 2.189 1.12 2.189 2.499 0 1.382-.98 2.501-2.19 2.501m-45.21 0h-6.232c-5.204-.48-10.265-2.17-14.922-5h36.257a35.712 35.712 0 0 1-11.387 4.456c-1.238.248-2.477.43-3.715.544m-34.45 0h-3.96c-1.21 0-2.191-1.12-2.191-2.501 0-1.115.64-2.061 1.526-2.38a53.213 53.213 0 0 0 4.626 4.881"/>
        <path fill="#FEDFE1" d="M423.501 470C406.103 470 392 455.895 392 438.5c0-17.398 14.103-31.5 31.501-31.5C440.897 407 455 421.102 455 438.5c0 17.395-14.103 31.5-31.499 31.5"/>
        <path fill="#FFFFFE" d="M429.692 437.891c3.095-2.03 5.148-5.528 5.148-9.513 0-6.285-5.079-11.378-11.339-11.378-6.264 0-11.34 5.093-11.34 11.378 0 3.985 2.054 7.481 5.147 9.511C410.26 439.571 405 445.891 405 453.48v9.452c5.196 3.798 11.576 6.068 18.501 6.068 6.923 0 13.303-2.27 18.499-6.068v-9.452c0-7.589-5.26-13.91-12.308-15.589"/>
        <path fill="#FD2E3B" d="M473.502 410l1.39 2.964 3.108.473-2.25 2.305.533 3.258-2.781-1.537-2.783 1.537.533-3.258-2.252-2.305 3.11-.473 1.392-2.964M488.5 410l1.391 2.964 3.109.473-2.25 2.305.533 3.258-2.783-1.537-2.783 1.537.533-3.258-2.25-2.305 3.109-.473L488.5 410M504.501 410l1.39 2.964 3.109.473-2.251 2.305.532 3.258-2.78-1.537-2.782 1.537.532-3.258-2.251-2.305 3.11-.473L504.5 410M518.502 410l1.39 2.964 3.108.473-2.25 2.305.533 3.258-2.781-1.537-2.785 1.537.533-3.258-2.25-2.305 3.109-.473 1.393-2.964M534.5 410l1.39 2.964 3.11.473-2.252 2.305.533 3.258-2.781-1.537-2.783 1.537.533-3.258-2.25-2.305 3.109-.473L534.5 410"/>
        <path fill="#EFEFEF" d="M596.787 467h-31.572c-1.224 0-2.215-1.12-2.215-2.501 0-1.38.991-2.499 2.215-2.499h31.572c1.222 0 2.213 1.12 2.213 2.499 0 1.382-.991 2.501-2.213 2.501M494.82 456h-23.641c-1.203 0-2.179-1.12-2.179-2.5s.976-2.5 2.179-2.5h23.64c1.203 0 2.181 1.12 2.181 2.5s-.978 2.5-2.18 2.5M596.798 456h-91.596c-1.216 0-2.202-1.12-2.202-2.5s.986-2.5 2.202-2.5h91.596c1.216 0 2.202 1.12 2.202 2.5s-.986 2.5-2.202 2.5M596.785 442h-126.57c-1.223 0-2.215-1.12-2.215-2.499 0-1.382.992-2.501 2.215-2.501h126.57c1.223 0 2.215 1.12 2.215 2.501 0 1.38-.992 2.499-2.215 2.499M510.818 430h-39.636c-1.205 0-2.182-1.12-2.182-2.501 0-1.38.977-2.499 2.182-2.499h39.636c1.205 0 2.182 1.12 2.182 2.499 0 1.382-.977 2.501-2.182 2.501M596.806 430h-75.612c-1.211 0-2.194-1.12-2.194-2.501 0-1.38.983-2.499 2.194-2.499h75.612c1.211 0 2.194 1.12 2.194 2.499 0 1.382-.983 2.501-2.194 2.501M554.808 467H471.19c-1.21 0-2.19-1.12-2.19-2.501 0-1.38.98-2.499 2.19-2.499h83.618c1.21 0 2.192 1.12 2.192 2.499 0 1.382-.983 2.501-2.192 2.501"/>
        <path fill="#FFEBEC" d="M645.474 423a5.443 5.443 0 0 1-4.22-2.004L629 406.04v-17.366l.863 1.053c.167-.002.331-.002.496-.002.555 0 1.095.007 1.607.013.514.006.999.01 1.435.01.883 0 1.566-.023 1.9-.12l.395-.119-.067-.157s4.643-2.912 10.371-6.478v10.204c-4.598 1.653-7.648 2.747-7.648 2.747l-.263-.625c-.65.465-1.262.989-1.778 1.604l-.312.41L646 409.425v13.532l-.526.044M629 369.041v-1.653c4.956-1.512 10.96-3.51 15.935-5.67l-.127.098c-.181.135-.368.27-.565.407l-.413.274c-.202.13-.407.264-.621.392l-.467.279c-.224.13-.458.263-.699.394l-.487.268c-.26.141-.532.278-.803.418l-.477.24c-.32.16-.654.318-.993.476l-.372.177c-.473.22-.958.436-1.451.65l-.142.06c-.446.193-.9.384-1.363.575l-.51.208c-.35.141-.702.285-1.062.426-.19.075-.382.147-.571.222-.34.133-.683.262-1.026.393-.206.079-.415.155-.62.232l-1.012.372-.625.224c-.351.127-.703.25-1.054.374-.158.056-.317.11-.475.164m0-11.359v-.454c3.796-2.358 6.583-4.233 6.629-4.68.143-1.425 4.032-39.767 9.545-45.75.28-.304.549-.536.826-.798v20.875c-1.718 10.66-2.75 20.849-2.824 21.57-.072.716-7.163 5.084-14.176 9.237"/>
        <path fill="#FDC5C5" d="M628 406l-1.785-2.225c-1.541-.073-2.9-1.524-2.91-3.115-.28.166-.602.247-.923.247-.425 0-.847-.14-1.18-.413-.58-.483-.836-1.347-.613-2.083.072-.24.191-.478.167-.727-.046-.492-.582-.73-.98-1.009-.704-.502-1.03-1.342-1.04-2.227l-.736-.917v-17.788l10 12.47V406m-10-34.646v-2.283l.155.183s4.262-1.108 9.845-2.846v1.693l-.099.036c-.38.134-.752.266-1.131.394l-.505.176c-.464.158-.922.315-1.38.466l-.224.077a233.832 233.832 0 0 1-6.661 2.104m0-8.929v-.291c3.397-2.039 7.01-4.238 10-6.134v.466a978.825 978.825 0 0 1-10 5.959"/>
        <path fill="#FEE6E8" d="M619 394l-13.134-15.897v.008c-.12.015-.237.02-.356.02-1.489 0-2.93-1.149-3.201-2.628-.057-.32-.071-.66-.243-.935-.3-.483-.942-.58-1.489-.739-2.091-.614-3.418-2.733-3.927-4.858a7.95 7.95 0 0 1-.222-1.939h1.486c1.221 0 2.211-.992 2.211-2.215 0-1.223-.99-2.215-2.21-2.215h-4.857l-6.792-8.222h11.648a2.21 2.21 0 0 0 1.92-1.116l7.31 8.849.503.103c1.164.434 2.3 1.025 3.13 1.949.69.77 1.145 1.913 1.12 2.972A996.478 996.478 0 0 0 619 363.04v.287a1103.2 1103.2 0 0 1-3.823 2.172L619 369.88v2.251a287.56 287.56 0 0 1-2.893.827L619 376.46V394m-21.904-44.053h-14.491l-4.86-5.88a50.27 50.27 0 0 1-11.266 5.88h-34.647a50.36 50.36 0 0 1-11.393-5.987 50.729 50.729 0 0 1-2.956-2.232h28.49a39.177 39.177 0 0 0 6.293 0h38.039l6.79 8.22M512.814 337.4a50.106 50.106 0 0 1-5.377-6.74l-.46-2.692 2.46-2.4-3.398-.493-1.518-3.085-.898 1.823c-4.683-10.206-5.885-21.814-3.251-32.855h11.573c-3.635 11.59-1.65 24.297 5.263 34.208l-2.776.402 2.458 2.4-.582 3.393 3.041-1.603 3.038 1.603-.04-.227a39.297 39.297 0 0 0 4.487 3.659 39.4 39.4 0 0 0 4.073 2.502h-17.421c-.235 0-.461.038-.672.105m73.83-.105h-19.128c5.403-2.867 10.089-7.002 13.691-12.171 5.975-8.568 8.263-18.954 6.438-29.246a39.565 39.565 0 0 0-1.195-4.92h11.465l.105-.002c.233.978.438 1.968.616 2.967 2.342 13.233-.6 26.588-8.278 37.605-1.285 1.844-2.713 3.544-4.202 5.176l.488.591m10.105-50.77h-11.983a38.65 38.65 0 0 0-5.022-8.219h13.39a50.088 50.088 0 0 1 3.615 8.22m-83.11 0h-11.992a50.213 50.213 0 0 1 3.634-8.22h13.386a39.317 39.317 0 0 0-5.029 8.22m76.737-12.65h-14.772a39.564 39.564 0 0 0-13.808-8.222h21.378a49.994 49.994 0 0 1 7.202 8.222m-67.597 0h-14.731a50.843 50.843 0 0 1 7.157-8.222h21.425a38.576 38.576 0 0 0-13.85 8.222m54.821-12.655h-56.856c5.83-4.017 12.502-6.773 19.676-8.049.341-.06.683-.117 1.026-.172h15.674c7.268 1.158 14.242 3.931 20.48 8.221"/>
        <path fill="#EFEFEF" d="M583 266h-21.388a34.639 34.639 0 0 0-19.43-1.659 36.171 36.171 0 0 0-5.748 1.659H515a51.411 51.411 0 0 1 5.542-5h56.883l.351.274A52.985 52.985 0 0 1 583 266M592 278h-13.412a42.382 42.382 0 0 0-4.148-5h14.796a57.405 57.405 0 0 1 2.764 5m-74.592 0H504a59.501 59.501 0 0 1 2.77-5h14.757a42.792 42.792 0 0 0-4.119 5M597.89 292h-12.112a45.907 45.907 0 0 0-1.778-5h12.658a61.066 61.066 0 0 1 1.342 4.998l-.11.002M511.213 292H499a59.24 59.24 0 0 1 1.345-5H513a45.477 45.477 0 0 0-1.787 5"/>
        <path fill="#98C3D9" d="M556 252.294h-16c2.68-.392 5.36-.588 8.025-.588 2.682 0 5.346.198 7.975.588"/>
        <path fill="#FD2E3B" d="M506.937 330a45.267 45.267 0 0 1-3.937-6.318l.927-1.682 1.566 2.847 3.507.455-2.539 2.215.476 2.483M521 331l-3.055-1.811-3.059 1.811.586-3.833-2.472-2.712 2.792-.455a42.899 42.899 0 0 0 5.168 6.744l.04.256"/>
        <path fill="#EFEFEF" d="M597.08 354h-11.647l-3.662-5h14.49l2.739 3.741c-.381.753-1.099 1.259-1.92 1.259m-48.822-1.507c-5.916 0-11.742-1.183-17.258-3.493h34.646a45.254 45.254 0 0 1-17.388 3.493M596.81 367h-1.472c.002-.125.006-.25.015-.379L592 362h4.81c1.21 0 2.19 1.12 2.19 2.5s-.98 2.5-2.19 2.5M590 342h-38.288a36.367 36.367 0 0 0 3.776-.544A36.646 36.646 0 0 0 567.061 337h19.254l3.685 5m-44.622 0h-28.677a53.586 53.586 0 0 1-4.701-4.882c.213-.075.44-.118.676-.118h17.537c4.732 2.83 9.876 4.52 15.165 5"/>
        <path fill="#EBF6F9" d="M205.999 527c-24.3 0-43.999-1.566-43.999-3.501 0-1.933 19.7-3.499 43.999-3.499 24.302 0 44.001 1.566 44.001 3.499 0 1.935-19.7 3.501-44.001 3.501"/>
        <path fill="#E7E7E7" d="M262.397 351s4.878 5.558 5.771 5.884c.553.2 4.284.893 5.515 1.114.457.08.922.164 1.337.373.428.21.778.54 1.112.88.92.94 1.73 1.98 2.538 3.019.215.276.434.553.588.866.19.377.286.793.378 1.206.53 2.351.984 4.72 1.364 7.1l-.019.377c-.135.273-.56.205-.794.009-.232-.197-.407-.484-.7-.576-.003.2-.008.404-.01.604-.417.23-.932.033-1.351-.188a11.04 11.04 0 0 1-4.253-4.04c-.205-.339-.392-.693-.676-.967-.749-.73-1.921-.717-2.939-.973-.918-.234-1.896-.492-2.76-.879-1.583-.712-1.775-2.58-1.927-2.932-.083-.193-.248-.34-.407-.482-1.038-.917-5.164-3.975-5.164-3.975l2.397-6.42"/>
        <path fill="#F65D67" d="M205.54 229c2.032.679 3.104 3.713 3.793 5.79.832 2.501 1.246 5.16 1.519 7.813.188 1.846.302 3.788-.332 5.496-.324.873-.825 1.637-1.323 2.39-.282.427-.571.862-.956 1.165-.384.301-.887.453-1.322.26-.632-.281-.884-1.141-1.065-1.899-1.17-4.934-2.449-9.924-4.854-14.218"/>
        <path fill="#DDD1D1" d="M209 244.676c.05-1.47 1.808-2.426 3.33-.905 1.261 1.255 1.597 3.643 1.667 5.407.086 2.112-1.778 2.527-3.312 2.822"/>
        <path fill="#E6E6E6" d="M224.998 506.03s.044 4.4-.301 5.962c-.347 1.562-5.95 1.058-6.488.17-.538-.889.134-8.162.134-8.162"/>
        <path fill="#D74C55" d="M217.138 515.98c-.148 1.594-.138 4.603-.138 4.603l5.62 1.198.715-.847s1.573 1.19 3.304 1.597c1.286.301 3.975.532 5.304.453 4.643-.274 7.848-1.559 8.007-2.16.664-2.517-5.507-2.2-6.763-2.293-3.606-.267-6.036-2.56-6.74-4.194-.51-1.185-.21-1.454-.977-1.296 0 0-.683.075-1.197.747-.79 1.032-2.162 1.66-3.559 1.343-.798-.18-1.585-.506-2.122-1.076 0 0-1.303.333-1.454 1.926"/>
        <path fill="#FE7C84" d="M214.891 448.177c.5-8.233-5.891-19.247-5.891-19.247s17.257-9.86 17.516-12.93c0 0 2.363 16.937 3.212 22.914 1.471 10.379-3.507 69.586-3.507 69.586s-3.612 1.041-8.407.118c0 0-.9-22.867-4.492-38.359-1.704-7.345.973-20.047 1.57-22.082"/>
        <path fill="#FE7C84" d="M213.704 354.025c6.918 15.097 14.43 63.81 16.23 80.625.765 7.13-5.308 15.487-12.377 9.04-8.442-7.697-20.316-42.956-24.56-49.18-4.242-6.225-20.118-11.931-9.274-43.51"/>
        <path fill="#E6E6E6" d="M182 507s-.653 6.244-.912 7.828c-.254 1.588-6.053 1.364-6.664.498-.607-.866-.384-8.204-.384-8.204"/>
        <path fill="#D74C55" d="M175.027 517.361c-.114 1.72.172 4.55.172 4.55l5.982.405.362-.989s1.872 1.143 3.395 1.245l5.048.344c3.697.252 5.827-.083 5.963-.733.573-2.724-3.85-2.899-5-2.976-3.3-.225-6.77-2.03-7.438-3.777-.483-1.27-.212-1.563-.91-1.38 0 0-.623.093-1.084.826-.707 1.125-1.953 1.828-3.234 1.51-.731-.182-1.457-.52-1.956-1.125 0 0-1.186.381-1.3 2.1"/>
        <path fill="#FE7C84" d="M196.761 448.465c-1.137 5.922-16.385 3.71-16.056-1.534.467-7.456-4.681-17.091-6.656-52.58-.226-4.055-4.23-4.65-5.806-15.676-1.558-11.044 4.891-23.271 4.891-23.271l23.46-3.404s9.016 20.638 7.152 41.214c-1.863 20.581-5.636 48.278-6.985 55.25"/>
        <path fill="#FE7C84" d="M179.46 445.8s-5.454 10.464-6.095 18.03c-.935 11.07.222 47.5.222 47.5s5.9 1.244 9.05.342c0 0 13.845-64.636 14.352-71.588.51-6.952-17.53 5.716-17.53 5.716"/>
        <path fill="#FFB0B0" d="M221.973 280.838c-2.644-3.09-11.037-8.181-22.253-7.82-7.728.248-28.775 1.546-31.126 6.812-1.202 2.692-2.493 30.255-.732 39.76 1.324 7.145 4.708 24.849 4.708 29.12 0 4.27-2.252 6.104-1.2 7.343 2.355 2.781 18.46 3.947 26.02 3.947 6.726 0 18.182-1.827 18.762-4.024.864-3.258-1.314-3.136-1.609-6.553-.295-3.416-1.879-25.948.09-29.223 3.13-5.2 6.235-18.89 6.476-22.805.24-3.92 3.508-13.468.864-16.557"/>
        <path fill="#A6D4E6" d="M171.489 356.675l-.019-.016c-.252-.226-.354-.474-.357-.754.003.28.105.528.357.754.006.006.01.01.019.016m1.511-7.197c0-4.177-4.315-21.49-6-28.478 1.687 6.988 6 24.3 6 28.478"/>
        <path fill="#FF959C" d="M179.675 359c-3.355-.546-6.13-1.268-7.352-2.189-.002 0-.002-.002-.002-.002l-.01-.006-.01-.008a2.314 2.314 0 0 1-.355-.332c-.006-.007-.01-.01-.014-.017a1.144 1.144 0 0 1-.272-.761c-.006-1.227 1.433-3.065 1.433-6.492 0-4.22-3.275-21.709-4.556-28.767l-.006-.03v-.005l-.006-.023v-.004c-.226-1.266-.397-2.853-.525-4.646l.216-1.054s5.268-8.811 6.045-10.492c.056-.116.096-.172.126-.172.393 0-1.236 10.052-.126 19.17 1.193 9.804 6.083 30.205 5.72 31.247-.365 1.041-2.36.724-2.056 1.965.13.53.908 1.585 1.75 2.618"/>
        <path fill="#E6E6E6" d="M206.3 264.783s.074 9.19.456 9.561c.381.372 2.244 1.23 2.244 1.23s-1.33 7.988-3.382 7.395C203.563 282.376 190 275.7 190 275.7s1.923-.764 1.923-1.505c0-.74-1.825-15.196-1.825-15.196"/>
        <path fill="#E6E6E6" d="M195.893 231c1.904.532 6.926-.532 8.312 1.594 1.386 2.126 2.599 7.262 3.117 8.68 1.034 2.82 1.71 5.834 2.46 8.743.98 3.789 2.593 10.732-1.032 13.902-1.04.91-1.506 1.212-2.796 1.45-1.715.317-3.424.679-5.14.993-2.659.489-5.606 1.058-8.247.18-3.529-1.172-5.465-6.134-6.37-9.505L181 237.73l14.893-6.73"/>
        <path fill="#F97179" d="M206.797 286s.763 34.785 2.203 55.946L203.797 349l-3.577-8.834s-1.51-25.52 3.384-53.924l3.193-.242"/>
        <path fill="#FC8C8C" d="M208 282.396l-.126.523a11.012 11.012 0 0 1-1.098 2.816l-3.255.265s-2.213-1.221-2.505-2.536c-.293-1.312 3.631-3.464 3.631-3.464l.48.196a7.137 7.137 0 0 1 2.832 2.15l.041.05"/>
        <path fill="#FF9198" d="M192.331 271s-2.74 1.905-4.331 4.249c1.633 3.633 6.49 9.81 10.556 12.751 1.9-4.956 6.444-7.836 6.444-7.836s-11.532-2.32-12.669-9.164"/>
        <path fill="#FF9198" d="M204 280.916s4.272 1.593 6.809 6.084c0 0 .817-6.076-.927-11.293 0 0-2.3-3.634-3.27-3.707.4 4.298-2.612 8.916-2.612 8.916"/>
        <path fill="#FFB0B0" d="M219.72 280.413c6.93 3.8 18.786 42.852 20.105 43.279 1.32.427 28.175 31.622 28.175 31.622L263.741 361s-27.11-19.442-34.894-27.952c-5.48-5.996-15.846-32.754-15.846-32.754s-.211-23.68 6.719-19.881"/>
        <path fill="#8BC7E2" d="M265.267 361s-6.553-4.447-14.267-10c7.714 5.553 14.267 10 14.267 10l.733-.925-.733.925"/>
        <path fill="#AC9E8B" d="M265.542 360.62l.916-1.24-.916 1.24"/>
        <path fill="#FF959C" d="M263.386 361s-6.095-4.515-13.271-10.153c-7.755-6.096-16.771-13.506-20.708-17.95-2.865-3.236-7.099-12.48-10.407-20.357l1.993-8.54s8.286 24.946 10.897 27.3c2.608 2.35 32.988 27.374 33.11 27.476l-.932 1.285-.682.939"/>
        <path fill="#E57386" d="M186.104 345.035l-41.5 7.935c-1.129.218-1.837 1.365-1.534 2.49l5.559 29.072a1.97 1.97 0 0 0 2.268 1.433l41.497-7.934c1.132-.216 1.84-1.364 1.535-2.49l-5.559-29.072a1.971 1.971 0 0 0-2.266-1.434"/>
        <path fill="#FFF0F1" d="M184.523 349L145 356.5l5.475 28.5L190 377.5l-5.477-28.5"/>
        <path fill="#D74C55" d="M186.99 374.328l-4.774-24.859c-.06-.309-.378-.516-.712-.46-.332.056-.554.352-.494.661l4.775 24.86c.058.31.378.515.71.461.333-.056.554-.352.496-.663M183.99 376.33l-4.774-24.86c-.06-.312-.378-.517-.712-.46-.332.053-.554.35-.494.66l4.774 24.86c.06.31.378.517.71.46.334-.053.556-.351.496-.66M177.99 377.328l-4.774-24.859c-.06-.309-.378-.516-.712-.46-.332.056-.554.352-.494.661l4.775 24.86c.06.31.378.515.71.461.333-.056.554-.352.496-.663M171.99 378.33l-4.774-24.86c-.06-.31-.378-.515-.712-.461-.332.056-.554.352-.494.663l4.775 24.859c.058.309.378.516.71.46.333-.056.554-.352.496-.661"/>
        <path fill="#A0CCE2" d="M166.99 378.318l-4.883-24.86a.56.56 0 0 0-.658-.447.57.57 0 0 0-.438.672l4.883 24.86a.56.56 0 0 0 .658.446.572.572 0 0 0 .437-.671M161.989 379.317l-4.883-24.86a.56.56 0 0 0-.657-.446.57.57 0 0 0-.438.672l4.883 24.858a.56.56 0 0 0 .657.448.57.57 0 0 0 .438-.672"/>
        <path fill="#D74C55" d="M156.986 380.312l-5.738-24.857c-.072-.309-.406-.508-.745-.443-.341.065-.561.367-.49.676l5.739 24.857c.071.309.406.508.747.443.342-.065.559-.367.487-.676"/>
        <path fill="#E7E7E7" d="M162.535 367s1.62 3.214 2.487 4.846c.566 1.066 4.866 4.628 6.59 7.47.831 1.37 1.563 2.919 1.351 4.498-.212 1.578-1.736 3.074-3.335 2.74-.454-.095-.976-.314-1.344-.034-.187.14-.27.372-.384.573-.354.617-1.115.987-1.834.892-.72-.097-1.35-.654-1.52-1.34-1.1 1-3.013.978-4.09-.044.64-.516 1.118-1.308.987-2.107-.126-.77-.76-1.344-1.25-1.962a5.973 5.973 0 0 1-1.282-3.84c.027-.977.297-1.932.407-2.906a9.048 9.048 0 0 0-1.318-5.774"/>
        <path fill="#FFB0B0" d="M177 300.324c-1.245 4.404-20.238 33.368-20.238 33.368l10.167 36.716-5.797 3.592S143.055 344.243 143 335.841c-.056-8.403 13.223-39.211 22.932-51.809 3.089-4.007 9.284-6.032 9.284-6.032"/>
        <path fill="#F65D67" d="M184.93 254.09c1.246-.741 2.2-1.523 3.01-.31.427.643.688 1.531 1.42 1.752.731.221 1.487-.448 1.668-1.2.18-.754-.048-1.538-.275-2.277l-1.499-4.91c-.49-1.604-.974-3.367-.348-4.92.315-.785.889-1.435 1.523-1.985 2.06-1.801 4.746-2.672 7.407-3.226 2.66-.555 5.385-.837 7.975-1.665 1.087-.35 2.166-.805 3.037-1.557 1.404-1.213 2.13-3.12 2.152-4.998.018-1.873-.614-3.713-1.557-5.322a9.026 9.026 0 0 1-.798 1.847 6.857 6.857 0 0 0-1.452-2.319c-.775 4.399-18.97 2.929-23.22 4.868-2.944 1.342-5.382 2.222-5.292 7.081-.085.317-.338.55-.576.773-2.61 2.44-3.742 5.408-4.07 9.817-.4 5.393 2.686 11.234 5.71 15.679.76 1.117 1.184 1.911 2.248 2.733 1.063.825 2.916 1.228 4.227.973 1.312-.255 3.896-.14 3.921-1.5.02-.972-2.024-2.705-2.59-3.491"/>
        <path fill="#E6E6E6" d="M190.955 257.87s.238.92-.381 1.645c-.547.632-1.653.542-2.413.313-2.167-.647-3.659-2.594-4.065-4.605-.482-2.37.897-4.741 3.247-4.124 1.377.36 2.235 1.8 2.218 3.12"/>
        <path fill="#DDD1D1" d="M206.924 266l-5.924.66s1.978 1.34 6 1.34"/>
        <path fill="#E5646C" d="M219.079 449.813c1.045-3.458-1.896-8.824-3.344-12.822-1.45-4-12.333-35.991-12.333-35.991L201 413.907c2.26 5.53 4.726 11.449 7.2 16.672l.002.004a119.713 119.713 0 0 0 2.85 5.66c1.721 3.917 3.532 9.205 3.252 13.683-.618 2.045-3.392 14.812-1.626 22.196 3.722 15.571 4.653 38.557 4.653 38.557.946.177 1.828.267 2.669.321-.314-5.676-.861-15.696-.921-17.68-.087-2.796-3.594-18.912-3.344-25.286.25-6.375 2.297-14.763 3.344-18.22"/>
        <path fill="#E57386" d="M193 367.1l-4.065.9L186 353.804l4.075-.804L193 367.1"/>
        <path fill="#E57386" d="M191.882 361.49c-.187-.96.467-1.885 1.465-2.068.994-.181 1.954.45 2.144 1.41.188.96-.469 1.883-1.465 2.066-.994.18-1.954-.45-2.144-1.409zm5.06-.922c-.335-1.712-2.046-2.836-3.82-2.513l-4.122.753 1.215 6.192 4.12-.75c1.776-.323 2.943-1.972 2.607-3.682z"/>
        <path fill="#EBF6F9" d="M319.999 554c-25.405 0-45.999-1.791-45.999-3.999 0-2.21 20.594-4.001 45.999-4.001S366 547.791 366 550.001c0 2.208-20.596 3.999-46.001 3.999"/>
        <path fill="#FCDDDF" d="M348.12 353l-.24-.033V297l.24.035V353"/>
        <path fill="#F89399" d="M364.124 357c-.12 0-.239-.008-.36-.025L349 354.939V298l17 2.344v55.844a2.558 2.558 0 0 1-1.876.812"/>
        <path fill="#FEB9BD" d="M365 355v-55l10 1.355v13.54l-9.429 39.056A2.32 2.32 0 0 1 365 355"/>
        <path fill="#FFE0E0" d="M375 315v-14l.35.064c1.112.205 1.851 1.577 1.601 2.978L375 315"/>
        <path fill="#FF9DA3" d="M340.981 295.649l-9.929 44.258c-.27 1.208.533 2.392 1.74 2.567l30.896 4.505a2.091 2.091 0 0 0 2.332-1.628l9.927-44.258c.272-1.207-.53-2.392-1.738-2.569l-30.898-4.502a2.087 2.087 0 0 0-2.33 1.627"/>
        <path fill="#FFF0F1" d="M341.935 296L332 338.514 364.068 343 374 300.486 341.935 296"/>
        <path fill="#D74C55" d="M370.521 303.662l-26.884-4.655c-.306-.053-.589.201-.631.57-.044.367.167.708.473.761l26.884 4.655c.304.053.587-.204.631-.57.044-.367-.169-.708-.473-.761M368.521 306.662l-26.884-4.655c-.304-.053-.587.201-.631.57-.044.367.167.708.473.761l26.884 4.656c.306.05.587-.204.631-.57.044-.37-.167-.708-.473-.762M358.548 311.426l-15.943-3.418c-.29-.063-.56.237-.6.67-.041.432.159.833.447.896l15.943 3.418c.29.063.56-.237.6-.67.041-.432-.159-.833-.447-.896M357.546 314.428l-15.942-3.42c-.288-.063-.556.24-.598.67-.043.431.16.832.448.895l15.942 3.42c.288.06.556-.24.598-.67.043-.435-.16-.835-.448-.895M355.546 318.428l-15.942-3.42c-.29-.06-.558.239-.598.67-.042.434.158.832.448.894l15.942 3.42c.288.06.557-.239.599-.67.04-.434-.16-.832-.449-.894M361.546 336.426l-15.941-3.418c-.29-.063-.56.237-.6.67-.041.432.159.833.45.893l15.94 3.42c.29.064.558-.236.6-.67.04-.43-.16-.832-.449-.895"/>
        <path fill="#E99B7B" d="M328.454 340.778c1.851-.87 3.227-2.485 4.543-4.053l3.896-4.637c.514-.61 1.049-1.278 1.107-2.07-2.179-.178-3.58 2.648-5.759 2.815a45.689 45.689 0 0 1 4.327-10.275c.453-.788.947-1.709.624-2.558-2.354.899-4.335 2.571-6.05 4.416a32.524 32.524 0 0 0-3.275 4.17c-2.876 4.349-4.656 9.341-5.867 14.414"/>
        <path fill="#E6E6E6" d="M318.267 374.118L296.256 355s-10.246 14.303-6.387 28.101c1.897 6.788 4.279 10.15 5.314 13.372.967 3.007 7.593 45.584 7.098 48.698-.494 3.112-4.052 11.824-5.41 20.984-1.632 11.014-1.357 46.91-2.623 56.426-1.264 9.519 7.272 11.127 7.741 7.908 4.012-27.521 14.61-70.405 16.094-84.163 1.483-13.757.882-38.952.184-72.208"/>
        <path fill="#E5E0E0" d="M318.347 403.023L309 425.493c3.94 6.974 6.22 15.206 6.52 23.55.156 4.336-.207 8.68-.093 13.017.008.305.052.637.125.94 1.255-6.425 2.186-11.723 2.554-15.174 1.023-9.657 1.029-25.007.704-44.826l-.463.023"/>
        <path fill="#E6E6E6" d="M303.646 522.07s-2.204 9.909-1.613 11.169c.596 1.264 2.728 4.935 4.912 6.262 2.29 1.391 7.365 3.046 7.77 3.649.407.603.434 1.484-.291 2.024-1.87 1.396-5.114 2.076-7.235 1.742-6.882-1.079-7.594-3.968-11.602-4.432-.692-.079-1.975.893-3.888-.04-1.916-.928-2.847-2.612-2.68-4.191.281-2.731 1.898-4.979 3.044-6.998 1.151-2.02 1.96-11.255 1.96-11.255"/>
        <path fill="#E10917" d="M314.554 545.592c.495-.803.62-2.017.16-2.312-.636-.413-2.9-1.838-4.214-2.411-1.312-.575-3.395-1.082-2.66-.704.732.377-.617 1.784-1.848 1.712-4.243-.246-7.372-2.928-9.79-3.501-3.488-.828-4.95-4.744-5.103-5.376-.66.396-2.195 3.548-2.507 4.54-.278.896-.784 2.532-.516 3.464.186.647.596 1.943.387 3.307 0 0 .687.503 2.509.858 1.152.228 2.7.037 2.7.037l.3-2.082s.948-.035 2.158.203c1.206.236 3.18 1.329 3.296 1.462.486.548.871 1.553 1.513 1.858 1.696.814 3.406 1.2 5.567 1.32 4.551.251 7.205-1.003 8.048-2.375"/>
        <path fill="#E7E7E7" d="M348.585 546.098c-.483-.536-5.648-1.384-8.072-2.405-2.307-.976-5.103-4.11-5.648-5.44-.546-1.327-.42-8.063-.35-10.893.483-19.48 4.047-67.087 4.562-78.491.898-19.814-1.65-40.269-9.197-72.081L301.775 355s-7.87 14.78-5.235 28.913c1.529 8.199 8.26 9.462 9.4 12.648 1.138 3.184 18.141 54.566 18.141 54.566s-3.31 11.107-3.502 23.276c-.163 10.388 4.502 41.724 5.367 53.661.101 2.335.498 7.917-.182 9.696-.832 2.179-2.958 4.738-2.852 7.485.062 1.595 1.202 3.115 3.193 3.738 1.991.625 3.102-.54 3.787-.567 3.964-.165 5.06 2.586 11.9 2.584 2.11 0 5.17-1.177 6.793-2.852.625-.648.478-1.515 0-2.05"/>
        <path fill="#E10917" d="M350.749 548.86c.382-.976.331-2.34-.176-2.59-.706-.342-3.213-1.526-4.63-1.933-1.415-.407-3.602-.605-2.803-.315.799.29-.365 2.08-1.623 2.216-4.341.465-7.907-1.959-10.443-2.175-3.661-.308-5.004-4.387-5.253-5.063-.612.556-2.418 4.311-2.588 5.46-.157 1.042-.425 2.941-.019 3.93.283.68.89 2.046.875 3.592 0 0 .772.434 2.671.512 1.203.05 2.745-.427 2.745-.427v-2.357s.959-.202 2.219-.152c1.262.05 2.817.747 3.578 1.37.597.486 1.226 1.302 1.93 1.495 2.03.552 3.488.71 5.698.464 4.653-.51 7.162-2.363 7.819-4.028"/>
        <path fill="#F5B1B1" d="M296.928 354.136c-1.939 2.111-8.853 13.517-8.927 22.8-.073 9.285 3.26 15.236 3.562 17.174 2.193 14.184 4.312 31.287 4.312 32.214 0 .928 8.131 6.298 19.066 5.616 20.204-1.258 28.059-6.497 28.059-6.497s-.958-34.352-4.07-51.293c-1.562-8.488-8.359-22.15-8.359-22.15"/>
        <path fill="#E7E7E7" d="M279 316.628s3.163 16.368 3.991 19.28c.83 2.916 4.932 21.408 8.823 21.088C295.703 356.672 317 338.15 317 338.15l-3.017-6.284-18.749 9.31s-1.694-21.14-3.177-26.176"/>
        <path fill="#D7CFCF" d="M286 326c2.03 7.012 6.193 14.403 7.437 19.841.25 1.092 13.532-3.626 13.563-8.501"/>
        <path fill="#D74C55" d="M291.469 295s-6.21.694-9.36 3.218c-8.03 6.438-1.817 29.801-1.817 29.801s-.394 1.246 4.997.93c5.389-.317 9.711-1.923 9.711-1.923l-1.555-19.144"/>
        <path fill="#A03B41" d="M283.102 308s-.77 13.293 1.918 20c2.657-.046 4.98-.586 4.98-.586L283.102 308"/>
        <path fill="#F5EAEA" d="M321.237 253.286c3.657 5.005 2.934 12.043 2.033 18.293l-1.37 9.477c-.216 1.501-.505 3.14-1.612 4.108-1.118.976-2.714.96-4.165.894.016 2.614.03 5.23.044 7.846-4.238.107-8.479.124-12.717.053a13.526 13.526 0 0 0-1.099-5.325c-2.075-.044-3.46-2.239-4.27-4.254-.937-2.32-1.62-4.749-2.278-7.175-.876-3.219-1.717-6.493-1.797-9.842-.08-3.35.673-6.83 2.688-9.418 1.377-1.765 3.248-3.017 5.168-4.073 2.63-1.448 5.788-2.59 8.499-1.324"/>
        <path fill="#383838" d="M318.001 275.444c-.519-2.552-.481-3.991.366-5.692.283-.564.65-1.094 1.157-1.446a2.483 2.483 0 0 1 2.356-.24c.496.215.906.61 1.186 1.089.898-3.428 1.087-7.081.827-10.642-.411-5.644-3.866-10.01-8.91-12.05-9.338-3.78-22.753-.045-26.547 8.984-2.864 6.821-1.412 16.665 4.072 22.383 4.855 5.06 11.837 5.806 18.28 4.762 3.298-.534 8.387-.215 10.095-4.631.13-.342-.164-.682-.515-.653-1.338.1-2.269-1.394-2.367-1.864"/>
        <path fill="#343131" d="M317.366 264.518c.344.533.264 1.25.585 1.793.545.919 1.267 1.25 2.242 1.694 1.574.723 1.204 2.983 1.159 3.995 1.188-.778 1.38-2.9 1.666-3.978.322-1.208.528-2.452.887-3.651.347-1.167.949-2.268 1.058-3.494.386-4.245-2.312-9.233-5.572-11.615-2.372-1.735-5.993-1.662-8.674.101-1.128.742-1.978 1.865-2.477 3.111-.215.534-.363 1.157-.097 1.668"/>
        <path fill="#A03B41" d="M297 294.12c.228-1.626.644-3.524 2.068-4.164.398-.179.833-.233 1.261-.284a98.68 98.68 0 0 1 13.16-.658c1.818.031 3.698.13 5.327.99 2.549 1.353 3.952 4.27 5.184 6.996"/>
        <path fill="#D74C55" d="M335.152 350.958c-.607-.882-2.005-1.933-2.505-2.903-1.204-2.326-2.26-12.116-1.845-14.617.444-2.681 2.86-4.123 3.95-10.092 1.403-7.687-1.806-13.66-3.598-16.218-2.537-3.62-1.032-3.599-1.9-8.032-.158-.798-.34-1.652-.897-2.209-.548-.547-4.327-2.245-5.07-2.356-7.046-1.074-11.19-.237-18.315.07-3.525.152-7.042.555-10.505 1.305-3.829.829-7.163 1.826-7.953 6.934-1.218 7.897-.194 15.877 2.25 23.368 1.619 4.962 11.29 22.137 8.896 25.46-.549.759-1.92 2.202-2.085 3.15-.607 3.471 7.375 4.69 10.793 4.966 5.204.42 11.179.14 16.398-.1 3.954-.184 12.6-1.539 13.215-6.336.12-.942-.353-1.7-.829-2.39"/>
        <path fill="#A03B41" d="M332 324.846c.002 1.498-.83 3.509-1.097 4.297-1.037.536-5.148 1.43-7.508.344C322.876 324.532 320 315 320 315s12 8.46 12 9.846"/>
        <path fill="#383838" d="M298.442 280.193c-2.678-.736-5.565.728-7.35 2.808-2.06 2.399-2.953 6.126-1.026 8.631.718.933 1.744 1.597 2.794 2.166 3.192 1.727 6.974 2.746 10.521 1.898 3.547-.847 6.662-3.933 6.619-7.483-.038-3.211-2.45-5.895-4.892-8.062"/>
        <path fill="#E7E7E7" d="M326 320.228S339.475 352 345.32 352c4.254 0 14.68-29.33 14.68-29.33l-6.589-3.045-7.345 12.285-7.44-22.91"/>
        <path fill="#E8E2E2" d="M352 322.552s2.191-3.411 2.032-5.83c-.063-.925-.617-5.315-.154-6.177.463-.866 1.576-3.69 2.21-4.24.635-.55 2.983-1.431 3.559-1.038.572.391 1.287-1.414 2.241-1.257.95.157 1.746.941 1.746 1.807 0 .862 1.269 1.019 1.428 1.646.158.628.08 1.178.317 1.648.24.469.941.239 1.191 1.412.23 1.075-.078 1.178 0 1.728s.557.497.398 1.543c-.16 1.047-.885 2.405-1.52 3.58-.634 1.178-1.945 2.65-3.686 3.693-.859.511-1.33 1.41-2.15 2.933"/>
        <path fill="#2A2A5F" d="M355.67 298.436c-.18-.244-.677-.653-1.262-.295-.584.358-.407.972-.28 1.22l4.322 8.522s.353.35 1.02-.162c.727-.559.494-.837.494-.837s-4.112-8.203-4.294-8.448"/>
        <path fill="#E99B7B" d="M359.398 305.152c-.913 1.606-1.968 2.12-2.922 3.003-.746.691-.655 1.136-1.476 1.845 1.444-.105 1.197-.943 3.066-2.271.865-.617 1.757-1.282 1.929-2.33.057-.36-.378-.553-.597-.247"/>
        <path fill="#D74C55" d="M315 294.114c3.413.175 13.344-1.55 18.863 4.167 4.627 4.791 7.277 17.354 9.137 22.448-4.633 4.676-9.095 8.449-16.114 6.93-.266-.194-3.748-11.05-6.282-12.016"/>
        <path fill="#EB9191" d="M319 431.702c-1.324-8.178-9.528-33.53-9.875-34.227-4.471-3.307-7.418-6.72-8.906-9.475-1.007 5.554 1.647 11.053 4.134 16.167 4.346 8.937 6.924 18.652 10.665 27.833"/>
        <path fill="#F8A5A9" d="M651.318 300.819c-5.641 6.046-9.62 44.792-9.767 46.23-.146 1.437-28.551 17.386-28.551 17.386l3.998 4.565s30.269-7.608 35.714-14.177c4.617-5.573 15.288-51.12 15.288-51.12s-7.325-12.92-16.682-2.884"/>
        <path fill="#EBF6F9" d="M696 567c-46.392 0-84-2.686-84-5.999 0-3.315 37.608-6.001 84-6.001s84 2.686 84 6.001c0 3.313-37.608 5.999-84 5.999"/>
        <path fill="#E6E6E6" d="M739 531.487s2.136 4.67 3.215 6.144c1.077 1.475 5.754-1.866 5.785-3.074.033-1.21-4.154-8.557-4.154-8.557"/>
        <path fill="#D2434C" d="M751.177 535.188c1.068 1.464 2.823 4.37 2.823 4.37l-4.364 3.852-1.143-.475s-.717 1.901-2.042 3.12c-.982.909-3.273 2.418-4.514 2.979-4.35 1.956-7.993 2.254-8.488 1.75-2.078-2.108 3.673-4.76 4.75-5.45 3.097-1.984 3.943-5.36 3.62-7.274-.234-1.386-.663-1.502.122-1.716 0 0 .66-.256 1.518.147 1.317.618 2.924.566 3.995-.41.612-.557 1.132-1.249 1.282-2.055 0 0 1.37-.302 2.44 1.162"/>
        <path fill="#E6E6E6" d="M656 546.377s-1.13 2.52-.988 4.177c.14 1.658 6.219 1.782 6.925.92.708-.86 1.063-8.474 1.063-8.474"/>
        <path fill="#D2434C" d="M663 553.157c0 1.842-.535 4.843-.535 4.843h-6.78l-.334-1.085s-2.2 1.085-3.928 1.085h-5.722c-4.189 0-6.566-.51-6.673-1.216-.443-2.948 4.563-2.812 5.864-2.812 3.742 0 7.795-1.676 8.676-3.492.643-1.319.358-1.651 1.132-1.405 0 0 .698.142 1.163.96.713 1.25 2.065 2.09 3.535 1.842.842-.14 1.684-.448 2.293-1.054 0 0 1.309.493 1.309 2.334"/>
        <path fill="#D74C55" d="M690.369 421.551c-.022.125-1.444-1.395-2.868-2.916-1.431-1.526-2.864-3.052-2.894-2.917-2.25 11.11-12.718 48.271-16.195 58.019v.019c-.51 1.361-3.198 4.303-5.424 4.861-5.113 1.304-13.272-.411-13.927-9.986-.082-1.055.164-2.207.043-3.454-1.459-14.748 12.945-79.777 13.314-83.922.227-2.715 3.879-2.368 7.027-2.022 1.66.183 3.177.366 3.98.102 11.636-3.78 19.99 26.671 16.944 42.216"/>
        <path fill="#D74C55" d="M668.828 478.984c-2.26-6.943 1.172-15.077 1.172-15.077s-19.212-15.172-20.189-5.913c-.1.733-.813 7.008-.811 10.548.006 12.664 4.292 52.769 3.978 77.26v1.597s3.207.654 8.841.598c.254 0 .527 0 .801-.021 1.606-15.25 5.079-35.99 6.727-56.854.406-5.117-.146-10.99-.519-12.138M719.819 474.982c-4.013-4.94-8.247-7.151-9.502-10.912-2.914-8.748-2.125-44.228-2.404-54.079.83-2.015 8.556-22.153-7.123-36.991 0 0-14.098 5.992-25.386 6.715-8.89.568-13.404-.306-13.404-.306s8.397 12.547 8.886 18.108c.832 9.449 18.663 66.507 20.021 69.635 3.098 7.121 6.52 9.924 7.65 11.385 7.906 10.187 26.404 31.614 40.43 52.136l.948 1.327s2.817-.958 8.065-4.524c-7.559-13.664-15.463-36.84-28.181-52.494"/>
        <path fill="#F8A5A9" d="M653.853 301.695c2.753-3.161 14.566-8.046 26.246-7.675 8.047.253 33.624 2.888 36.074 8.276 1.252 2.751 1.132 28.887-.701 38.609-1.379 7.31-5.542 26.098-5.542 30.467 0 4.37 2.347 6.245 1.252 7.514C708.73 381.729 690.4 383 682.526 383c-7.007 0-18.932-1.868-19.537-4.114-.9-3.334 1.366-3.21 1.672-6.704.309-3.495 1.96-26.546-.093-29.896-3.257-5.318-8.202-20.39-8.453-24.395-.25-4.009-5.014-13.036-2.262-16.196"/>
        <path fill="#E6E6E6" d="M670.843 283.263s-.08 9.959-.482 10.36c-.4.402-2.361 1.33-2.361 1.33s1.4 8.653 3.562 8.013c2.16-.642 16.438-7.874 16.438-7.874s-2.023-.827-2.023-1.63c0-.804 1.92-16.462 1.92-16.462"/>
        <path fill="#E10917" d="M674.664 252.038c-1.722-1.282-4.2-1.33-6.141-.4-1.943.926-3.372 2.711-4.192 4.68-.79 1.903-1.029 4.168-.009 5.96-1.43.463-2.32 1.997-2.322 3.48-.002 1.616.965 3.176 1.83 4.48.83 1.255 2.625 2.011 4.1 1.687 1.06-.237 1.965-.948 2.614-1.806.65-.856 1.079-1.856 1.473-2.853 1.827-4.627 3.068-9.46 3.983-14.344"/>
        <path fill="#E6E6E6" d="M681.423 249c-2.12.545-7.71-.545-9.25 1.638-1.543 2.185-2.892 7.465-3.471 8.922-1.15 2.898-1.902 5.996-2.736 8.985-1.09 3.897-3.893 11.232.142 14.492 1.16.935 2.682 1.041 4.117 1.287 1.91.328 3.813.696 5.72 1.02 2.96.502 6.24 1.088 9.181.185 3.927-1.205 6.082-6.303 7.092-9.769L698 255.918 681.423 249"/>
        <path fill="#E6E6E6" d="M690.009 278.102s-.133.912.63 1.548c.667.556 1.835.353 2.62.054 2.228-.85 3.559-2.886 3.726-4.87.197-2.339-1.595-4.487-4.026-3.65-1.42.49-2.145 1.973-1.951 3.245"/>
        <path fill="#E10917" d="M695.366 267.077c-.645 1.994-2.322 6.521-4.108 6.083-1.785-.44.726-7.532 2.268-10.378-2.243-.008-5.011-.36-5.82-2.486-.182-.478-.326-1.097-.818-1.206-.403-.089-.764.243-1.11.471-1.575 1.037-3.725.025-4.98-1.393-.285-.325-.621-.704-1.051-.673-.263.018-.488.193-.703.348-2.588 1.866-9.463 1.772-9.439-1.509-2.263 1.17-3.732-1.677-3.596-3.626.135-1.949 1.572-5.2 4.693-5.12-.156-2.393 1.694-3.893 3.568-5.355 1.874-1.46 4.267-2.109 6.626-2.22 3.728-.173 7.97 1.391 9.242 4.951.09.257.182.546.415.686.258.154.582.067.87-.009 2.83-.77 6.089-.319 8.269 1.667 2.184 1.986 2.916 5.629 1.236 8.065 2.184.525 3.356 3.161 3.013 5.415-.342 2.251-1.797 4.153-3.309 5.836 2.365.77 3.311 4.056 2.112 6.266-1.2 2.21-4.28 3.408-6.738 3.046.565-2.28-.407-4.902-2.575-5.31"/>
        <path fill="#E72F3B" d="M671.203 306s-.764 35.89-2.203 57.72l5.204 7.28 3.577-9.113s1.508-26.333-3.387-55.636l-3.191-.251"/>
        <path fill="#FC4B56" d="M670 302.396l.125.522c.236.991.605 1.937 1.098 2.816l3.253.266s2.214-1.222 2.509-2.537c.29-1.31-3.636-3.463-3.636-3.463l-.475.198a7.1 7.1 0 0 0-2.834 2.148l-.04.05"/>
        <path fill="#F5747C" d="M686.67 291s2.738 1.905 4.33 4.251c-1.635 3.633-6.49 9.81-10.555 12.749-1.9-4.956-6.445-7.835-6.445-7.835s11.53-2.322 12.67-9.165M674 299.914s-4.271 1.593-6.808 6.086c0 0-.819-6.078.926-11.295 0 0 2.302-3.637 3.272-3.705-.403 4.297 2.61 8.914 2.61 8.914"/>
        <path fill="#A03B41" d="M670.846 479.206c-.557-1.65-.777-3.366-.794-5.027l.125-.255v-.018c2.33-6.606 7.802-25.696 11.823-40.897L675.768 411s-3.78 44.798-5.02 48.016c-1.24 3.218-5.096 13.562-4.723 15.79.376 2.23 2.814 6.317 2.44 9.847-.373 3.519-.32 35.18-.32 35.347 1.232-9.15 2.443-18.862 3.241-28.608.422-5.137-.152-11.034-.54-12.186"/>
        <path fill="#D74C55" d="M591.468 324.476l-4.517-3.155c-7.585 10.857-19.67 16.649-31.99 16.657a38.758 38.758 0 0 1-22.28-7.027c-10.859-7.585-16.651-19.67-16.66-31.99.003-7.715 2.27-15.467 7.028-22.282 7.587-10.859 19.67-16.649 31.99-16.657 7.713.002 15.467 2.27 22.282 7.027 10.859 7.585 16.649 19.667 16.657 31.989a38.764 38.764 0 0 1-7.027 22.28l4.517 3.158 4.518 3.155A49.802 49.802 0 0 0 605 299.038c.008-15.76-7.46-31.31-21.367-41.026A49.81 49.81 0 0 0 555.04 249c-15.76-.008-31.31 7.46-41.026 21.367A49.787 49.787 0 0 0 505 298.96c-.008 15.76 7.46 31.31 21.37 41.026A49.78 49.78 0 0 0 554.96 349c15.76.008 31.31-7.46 41.026-21.37l-4.518-3.154"/>
        <path fill="#D74C55" d="M581.278 335.02l66.874 79.984c1.96 2.344 5.466 2.67 7.832.73a5.468 5.468 0 0 0 .737-7.754l-66.872-79.985c-1.961-2.342-5.468-2.67-7.833-.73a5.47 5.47 0 0 0-.738 7.755"/>
        <path fill="#DAD7D7" d="M648.059 382s-3.781 1.142-5.734 1.69c-1.276.355-7.325-.27-10.884.516-1.716.378-3.503.964-4.614 2.288-1.11 1.323-1.183 3.575.272 4.54.414.273.973.506 1.023.99.026.245-.1.476-.175.712-.235.722.035 1.57.643 2.044.61.473 1.526.54 2.202.162.01 1.568 1.445 3 3.064 3.058-.06-.862.225-1.807.96-2.296.713-.47 1.645-.413 2.504-.499a6.817 6.817 0 0 0 4.034-1.855c.764-.741 1.331-1.649 2.03-2.448 1.436-1.643 3.443-2.803 5.616-3.254"/>
        <path fill="#72BADB" d="M662 388c.307-1.295.669-2.596 1.003-3.838A761.277 761.277 0 0 1 662 388m1.642-6.374c.125-.57.23-1.115.301-1.626l.057.02c-.066.357-.188.9-.358 1.606"/>
        <path fill="#954350" d="M661 388a935.589 935.589 0 0 0 .789-3.862c.186-.881.36-1.734.5-2.534.132-.705.228-1.247.28-1.604.104.042.214.085.328.127.66.956 2.336 3.428 4.103 6.36-2.182.57-4.21 1.083-6 1.513"/>
        <path fill="#72BADB" d="M662.906 372"/>
        <path fill="#A6D4E6" d="M714.446 317h-.134c.056-7.853-.22-14.648-.792-16 .682 1.613 1.082 7.797.926 16"/>
        <path fill="#72BADB" d="M716.855 325c.086-2.68.138-5.396.156-8h.134c-.046 2.508-.14 5.196-.29 8"/>
        <path fill="#A6D4E6" d="M714.001 303.003c-.002-.002-.002-.004-.002-.006 0 .002 0 .004.002.006"/>
        <path fill="#954350" d="M666.762 387a146.345 146.345 0 0 0-3.762-7c3.49 1.57 10.563 2.755 16 3.013A621.605 621.605 0 0 1 666.762 387"/>
        <path fill="#F48C92" d="M679.33 383c-5.284-.22-12.157-1.233-15.548-2.576-.102-.039-.2-.08-.293-.12a.717.717 0 0 1-.04-.018c.046-.441.071-.856.071-1.237-.902-3.32-.42-3.298-.112-6.779.008-.076.014-.163.023-.258.047-.563.116-1.445.195-2.559 2.876-1.977 5.456-3.72 7.247-4.862l4.375 5.982 3.632-9.051s.023-.398.054-1.147c3.604-1.742 6.742-3.204 6.742-3.204s8.053-28.063 12.093-38.731L714.72 302a3.053 3.053 0 0 1 .44.645l.01.019c.594 1.295.88 7.803.823 15.324-.02 2.411-.073 4.927-.163 7.408l-.006.072c-4.48 18.748-12.22 49.621-13.711 50.424-.638.344-11.617 3.808-22.784 7.108"/>
        <path fill="#E72F3B" d="M675.342 370L671 364.133c.904-.57 1.603-.988 2.039-1.21A283.654 283.654 0 0 1 679 360c-.031.734-.054 1.124-.054 1.124L675.342 370"/>
        <path fill="#F8A5A9" d="M697.442 315.748c-1.589 4.474-10.01 43.9-10.01 43.9s-8.236 2.037-13.418 4.69C669.997 366.394 642 383.536 642 383.536l2.786 6.464s49.834-17.413 52.019-18.581c2.186-1.17 22.195-50.948 22.195-59.83 0-5.23-4.297-10.589-4.297-10.589"/>
        <path fill="#DAD7D7" d="M611.918 373.977c-1.515.205-3.08-1.003-3.354-2.59-.055-.317-.069-.655-.23-.928-.283-.482-.89-.578-1.405-.737-1.974-.613-3.228-2.716-3.704-4.829-.255-1.122-.338-2.32-.01-3.423.326-1.099 1.118-2.09 2.169-2.407.205-.06.433-.098.634-.016.202.079.35.263.478.444a8.773 8.773 0 0 1 1.345 2.841c.2.745.346 1.59.939 2.048.397.305.918.367 1.359.597.89.46 1.339 1.512 1.669 2.5.5 1.503-.166 4.936.11 6.5M618.908 364c.332-1.284-.275-2.843-1.223-3.822-.947-.98-2.244-1.61-3.573-2.068-.351-.123-.827-.2-1.034.09-.149.208-.063.49.074.704.504.796 1.562 1.168 2.107 1.944.203.29.323.625.488.939.597 1.145 1.811 1.997 3.161 2.213"/>
        <path fill="#72BADB" d="M654 355c1.575-1.878 3.742-7.317 6-14-2.258 6.683-4.425 12.122-6 14"/>
        <path fill="#F48C92" d="M631 366s18.486-10.647 20.339-12.33c1.848-1.685 1.124-21.401 3.316-32.67l.02.1c.17.925.477 2.097.86 3.38 1.11 3.97 2.797 8.96 4.465 13.004a325.065 325.065 0 0 1-1.296 4.414c-1.961 6.479-3.842 11.75-5.21 13.571l-.002.002a.809.809 0 0 1-.051.066c0 .002 0 .002-.002.002a.459.459 0 0 1-.025.033l-.002.003-.01.012-.002.004-.013.015-.018.02v.002l-.018.02c-3.035 3.638-13.655 7.593-22.351 10.352"/>
        <path fill="#48A1CD" d="M660.914 336c-1.836-3.732-3.692-8.337-4.914-12 1.76 4.954 5 11.75 5 11.75-.027.084-.056.166-.086.25"/>
        <path fill="#D5CFCF" d="M673 283s7.428 2.146 8.745 1.865c1.318-.283-2.858 2.999-3.636 3.122-.78.121-5.109-.67-5.109-.67V283"/>
        <path fill="#F77A7A" d="M354.239 10.594c.093-.212-11.239 6.68-11.239 6.68L345.945 36l5.558-14.01 14.636-2.739L387 0l-32.761 10.594"/>
        <path fill="#E77A81" d="M387 0l-41 36 5.55-14.01L387 0"/>
        <path fill="#FFE0E0" d="M387 0l-53 11.796 10.064 6.208L387 0l-34.639 22.92L369.48 34 387 0"/>
        <path fill="#D74C55" d="M192.085 247.785c.227-.356 2.838-.953 4.805-1.383 1.964-.429 2.62-.573 3.018-.082.148.18.414.926.477 1.907.063.983-.09 1.867-3.138 2.67-2.152.568-3.265.236-4.31-.893-.913-.982-1.078-1.863-.852-2.219zm11.98-2.539c.012-.6.654-.795 2.586-1.378 1.93-.584 2.744-.877 3.169-.686.422.19.866 1.005.753 2.266-.13 1.447-.54 2.172-2.13 2.584-1.705.443-2.918-.106-3.515-.959s-.867-1.604-.862-1.827zm-14.676 3.83c.157.24 1.041.18 1.21.214.367.074.216.133 1.976 1.741 1.296 1.187 3.26 1.38 6.73.035 2.65-1.029 2.065-2.763 2.158-3.635.094-.873.314-1.046.74-1.155.421-.108.678-.063 1.327.617.651.68 1.886 2.417 4.728 1.848 2.237-.45 2.988-1.38 3.117-2.593.233-2.17.244-2.146.498-2.384.255-.235.083-1.096-.145-1.545-.23-.45-1.88-.135-3.555.3-1.677.437-4.253 1.104-5.118 1.726-.862.62-.725.918-1.202 1.048-.488.131-.61-.182-1.734-.286-1.121-.106-5.588 1.055-7.263 1.491-1.677.436-3.957 1.208-3.853 1.688.057.26.205.61.386.89z"/>
        <path fill="url(#a)" d="M249.469 127h81.062c5.231 0 9.469 4.204 9.469 9.389v52.222c0 5.185-4.238 9.389-9.469 9.389H249.47c-5.229 0-9.469-4.204-9.469-9.389V136.39c0-5.185 4.24-9.389 9.469-9.389"/>
        <path fill="#FFB0B0" d="M328 175l24-6.58-21.4-5.42"/>
        <path fill="#FFF" d="M275 164h15v-5h-15zM265 158h26v-5h-26zM253 178h73v-5h-73zM253 184h73v-5h-73zM265 152h26v-5h-26zM281 146h9v-5h-9zM310.655 168a14.43 14.43 0 0 0 8.366-2.786v-4.339c0-3.483-2.423-6.385-5.671-7.157a5.207 5.207 0 0 0 2.372-4.367 5.224 5.224 0 1 0-10.446 0c0 1.83.947 3.434 2.372 4.367-3.248.772-5.67 3.674-5.67 7.157v4.337a14.394 14.394 0 0 0 8.363 2.786c-7.934-.083-14.341-6.543-14.341-14.497 0-8.009 6.492-14.501 14.499-14.501 8.007 0 14.501 6.492 14.501 14.501 0 7.956-6.41 14.414-14.345 14.499"/>
    </g>
</svg>
