<svg xmlns="http://www.w3.org/2000/svg" xmlns:xlink="http://www.w3.org/1999/xlink" version="1.2" viewBox="0 0 300 262.5" height="350" width="400"><defs><clipPath id="b"><path d="M.836.05h31.23v61.173H.836zm0 0"/></clipPath><clipPath id="a"><path d="M0 0h33v62H0z"/></clipPath><g clip-path="url(#a)"><g clip-path="url(#b)" id="z"><path transform="matrix(1 0 0 -1 1.334 .55)" d="M.002-.001C5.217-2.282 7.295-8.509 8.38-14.099c1.238-6.363.965-13.254 3.883-19.043 5.496-10.906 12.648-23.32 17.968-27.03" fill="none" stroke="#00ab9e" stroke-linecap="round" stroke-linejoin="round" stroke-miterlimit="10"/></g></g><filter height="1" width="1" y="0" x="0" filterUnits="objectBoundingBox" id="c"><feColorMatrix values="0 0 0 0 1 0 0 0 0 1 0 0 0 0 1 0 0 0 1 0" in="SourceGraphic"/></filter><mask id="A"><path fill-opacity=".2" d="M0 0h500v500H0z" filter="url(#c)"/></mask><clipPath id="e"><path d="M.246.887h34.95v48.511H.245zm0 0"/></clipPath><clipPath id="d"><path d="M0 0h36v50H0z"/></clipPath><g clip-path="url(#d)"><g clip-path="url(#e)" id="B"><path d="M35.195 49.398S6.328 26.004.242.887C6.47 4.828 11.492 10.89 15.27 17.328 18.7 23.18 27.164 32.29 32.922 38.215c.68 3.144 1.433 6.828 2.273 11.183" fill="#51739e"/></g></g><mask id="C"><path fill-opacity=".2" d="M0 0h500v500H0z" filter="url(#c)"/></mask><clipPath id="g"><path d="M.79.59h27.73V64.94H.79zm0 0"/></clipPath><clipPath id="f"><path d="M0 0h29v65H0z"/></clipPath><g clip-path="url(#f)"><g clip-path="url(#g)" id="D"><path d="M28.52 26.281c-2.649 8.09-6.31 15.88-10.008 23.57-1.934 4.02-9.762 13.317-13.961 15.09.488-10.492.527-22.742-.692-33.332-1.168-10.199 2.5-17.93-1.5-27.39A261.127 261.127 0 0 0 .79.589c.371.122.73.25 1.082.4 6.578 2.82 9.617 9.78 10.18 16.542.469 5.578-.54 11.168-1.29 16.719-.35 2.559-.632 5.18-.081 7.691.011.028.02.047.02.079.69 2.992 5.062 2.82 5.62-.211l1.75-9.29c.52-2.78 1.09-5.69 3.371-7.628.899-.77 2.059-1.25 3.239-1.211 1.879.07 3.058 1.172 3.84 2.601" fill="#51739e"/></g></g><mask id="E"><path fill-opacity=".2" d="M0 0h500v500H0z" filter="url(#c)"/></mask><clipPath id="i"><path d="M.004.719H13.02v42.953H.004zm0 0"/></clipPath><clipPath id="h"><path d="M0 0h14v44H0z"/></clipPath><g clip-path="url(#h)"><g clip-path="url(#i)" id="F"><path d="M9.621 39.512c-.11 1.379-.07 2.758.188 4.156-3.329-.758-5.637-5.93-7.16-11.559C1.16 26.641.421 20.72.19 17.99A60.93 60.93 0 0 1 1.301.718C6.379 8.469 9.93 17.089 13.02 25.87a104.216 104.216 0 0 0-2.72 9.559c-.32 1.37-.57 2.718-.679 4.082" fill="#51739e"/></g></g><mask id="G"><path fill-opacity=".2" d="M0 0h500v500H0z" filter="url(#c)"/></mask><clipPath id="k"><path d="M.55.016h14.544V28.21H.55zm0 0"/></clipPath><clipPath id="j"><path d="M0 0h16v29H0z"/></clipPath><g clip-path="url(#j)"><g clip-path="url(#k)" id="H"><path d="M14.719 7.46c-1.125 4.99-4.145 9.302-6.797 13.677a105.994 105.994 0 0 0-3.93 7.074C2.195 25.195.977 21.859.637 18.379.082 12.566 2.3 6.344 7.027 2.926 9.238 1.332 11.828.43 14.535.016c.692 2.379.723 5.035.184 7.445" fill="#51739e"/></g></g><clipPath id="m"><path d="M.082.55H27.93v57.942H.082zm0 0"/></clipPath><clipPath id="l"><path d="M0 0h28v59H0z"/></clipPath><g clip-path="url(#l)"><g clip-path="url(#m)" id="I"><path transform="matrix(1 0 0 -1 .581 1.05)" d="M0 0C8.576-4.434 17.17-9.797 22.166-18.063c6.969-11.527 5.45-26.527.074-38.879" fill="none" stroke="#00ab9e" stroke-linecap="round" stroke-linejoin="round" stroke-miterlimit="10"/></g></g><clipPath id="o"><path d="M.32.742h44.723v10.563H.32zm0 0"/></clipPath><clipPath id="n"><path d="M0 0h46v12H0z"/></clipPath><g clip-path="url(#n)"><g clip-path="url(#o)" id="J"><path transform="matrix(1 0 0 -1 .822 10.806)" d="M.002.001c12.11 6.563 30.422 10.832 43.719 9.223" fill="none" stroke="#00ab9e" stroke-linecap="round" stroke-linejoin="round" stroke-miterlimit="10"/></g></g><mask id="K"><path fill-opacity=".2" d="M0 0h500v500H0z" filter="url(#c)"/></mask><clipPath id="q"><path d="M.945.871h11.313v46.516H.945zm0 0"/></clipPath><clipPath id="p"><path d="M0 0h13v48H0z"/></clipPath><g clip-path="url(#p)"><g clip-path="url(#q)" id="L"><path d="M11.566 41.863a21.28 21.28 0 0 1-1.699 5.524C5.617 38.379 1.88 26.613.977 12.172c-.243-3.91.851-7.934 2.933-11.3.211.233.39.476.57.722 2.997 4.09 4.536 9.066 5.66 14.027 1.958 8.59 2.837 17.535 1.426 26.242" fill="#51739e"/></g></g><mask id="M"><path fill-opacity=".2" d="M0 0h500v500H0z" filter="url(#c)"/></mask><clipPath id="s"><path d="M.863.258h66.688v22.98H.863zm0 0"/></clipPath><clipPath id="r"><path d="M0 0h68v24H0z"/></clipPath><g clip-path="url(#r)"><g clip-path="url(#s)" id="N"><path d="M67.55 8.262c-1.519.867-3.12 1.629-4.73 2.308a56.779 56.779 0 0 1-19.77 4.38c-9.882.37-20.038-1.81-29.519 1.01-4.351 1.29-8.363 3.642-11.652 6.75-.328.161-.66.34-.988.528-.79-6.687 15.89-15.41 20.96-17.68C31 1.462 41.2-.358 51.2.442c4.38.348 8.871 1.211 12.48 3.7 1.551 1.07 2.91 2.5 3.872 4.12" fill="#51739e"/></g></g><mask id="O"><path fill-opacity=".2" d="M0 0h500v500H0z" filter="url(#c)"/></mask><clipPath id="u"><path d="M.973.742h315.84v214.492H.973zm0 0"/></clipPath><clipPath id="t"><path d="M0 0h317v216H0z"/></clipPath><g clip-path="url(#t)"><g clip-path="url(#u)" id="P"><path d="M309.559 214.613l-300.891.621a7.27 7.27 0 0 1-7.285-7.254L.973 8.648a7.269 7.269 0 0 1 7.254-7.285l300.89-.62a7.268 7.268 0 0 1 7.281 7.253l.414 199.332a7.27 7.27 0 0 1-7.253 7.285" fill="#51739e"/></g></g><mask id="Q"><path fill-opacity=".2" d="M0 0h500v500H0z" filter="url(#c)"/></mask><clipPath id="w"><path d="M.89.594h76.801v55.59H.891zm0 0"/></clipPath><clipPath id="v"><path d="M0 0h78v57H0z"/></clipPath><g clip-path="url(#v)"><g clip-path="url(#w)" id="R"><path d="M41.148.625C20.918-.148-6.93 14.809 2.95 51.391c-.215 3.093 1.637 5.297 3.606 4.695 1.972-.606.234-6.469.234-6.469 3.367-27.195 9.668-31.898 20.363-31.8l25.09-.051c6.2.91 17.473 5.25 19.164 27.02l6.246 1.151c.485-15.722-3.32-44.046-36.504-45.312" fill="#51739e"/></g></g><mask id="S"><path fill-opacity=".2" d="M0 0h500v500H0z" filter="url(#c)"/></mask><clipPath id="y"><path d="M.16.648h9.531V22.34H.161zm0 0"/></clipPath><clipPath id="x"><path d="M0 0h10v23H0z"/></clipPath><g clip-path="url(#x)"><g clip-path="url(#y)" id="T"><path d="M9.691.652A486.991 486.991 0 0 0 2.29 22.34C1.461 11.758.641 3.258.16 1.54L3.38.831zm0 0" fill="#51739e"/></g></g></defs><g transform="matrix(.59597 0 0 .60063 2.132 -15.741)"><path d="M331.695 434.258c-8.027 5.875.094 11.113 10.23 7.226 5.466-2.097 10.708-4.168 16.298-5.57 1.808-.453 12.738-2.816 12.738-5.27.004-6.507-12.313-4.972-20.059-3.886-6.246.87-12.586 2.656-19.207 7.5m-177.656 3.59c-1.289.261-2.828.816-3.016 2.105-.156 1.067.743 1.977 1.61 2.625 7.117 5.305 16.687 5.645 25.594 5.77 1.039.015 2.117.023 3.074-.38 1.902-.804 2.816-3.312 1.93-5.163-.325-.68-.836-1.246-1.372-1.774-7.156-6.96-18.918-4.969-27.82-3.183M20.82 297.082c-2.18 1.918-.215 7.54.43 11.246.191 1.113.45 2.266 1.152 3.152.961 1.215 2.555 1.715 4.051 2.145 2.652.773 5.867 1.422 7.895-.438 1.504-1.382 1.715-3.64 1.715-5.671a52.754 52.754 0 0 0-.301-5.555c-.094-.887-.223-1.8-.696-2.559-.609-.968-1.687-1.53-2.746-1.98-3.797-1.606-9.32-2.262-11.5-.34M461.2 194.574c.202 1.774 1.296 3.305 2.355 4.746 2.039 2.782 4.11 5.598 6.804 7.77 1.137.918 2.465 1.738 3.93 1.789 1.34.047 2.621-.559 3.703-1.336 2.64-1.89 4.426-4.918 4.79-8.125.5-4.402-1.548-8.691-3.93-12.441-1.473-2.32-3.196-4.637-5.664-5.883-4.137-2.086-6.875-.266-8.032 3.402-1.062 3.371-4.386 6.324-3.957 10.078M406.906 87.312c1.176.407 2.465.032 3.645-.351.758-.246 1.691-.79 1.488-1.555-.102-.367-.445-.613-.785-.793-1.555-.832-3.574-1.449-5.14-.383-1.563 1.067-.384 2.676.792 3.082m-22.738-5.03c3.566 2.948 8.117 4.71 12.758 4.948 1.242.063 2.59-.015 3.547-.796 1.183-.973 1.308-2.957.261-4.07-.66-.7-1.625-1.016-2.515-1.38-1.528-.62-3.024-1.507-3.887-2.898-.25-.402-.469-.867-.883-1.102-2.586-1.453-13.98 1.418-9.281 5.297M248.59 57.996c-4.106 0-7.434 2.55-7.434 5.695 0 3.145 3.34 5.422 7.434 5.696 13.351.883 13.351-4.516 13.351-7.66 0-5.028-9.246-3.73-13.351-3.73M112.414 94.737c15.617 1.047 22.152-9.613 29.492-23.308 20.094-37.504 64.84-33.89 79.848-10.797 10.633 16.355 33.559 12.992 52.105 6.59 18.254-6.301 49.352-12.356 74.125-4.825 21.637 6.579 30.512 30.301 50.235 28.844 43.027-3.183 64.715 39.293 56.926 57.817-5.09 12.093-7.614 25.617-3.477 38.058 4.555 13.703 14.957 24.551 23.367 36.332 8.406 11.781 15.18 26.504 11 40.324-3.578 11.829-14.246 20.008-20.87 30.465-20.571 32.473-.224 82.242-27.63 109.309-19.617 19.375-51.601 14.902-79.05 18.601-22.891 3.086-44.434 12.7-67.223 16.465-46.145 7.625-92.75-9.172-139.532-9.648-16.48-.164-33.265 1.672-49.226-2.395-21.297-5.422-39.418-21.804-46.809-42.316-10.191-28.309-.535-61.063-12.05-88.867-9.383-22.649-32.329-41.075-30.887-65.516.902-15.215 11.297-27.941 18.445-41.441 10.625-20.055-3.445-99.356 81.211-93.692" fill="#ebf3ff"/><path d="M219.453 413.68c0 1.996-17.305 3.613-38.648 3.613-21.344 0-38.645-1.617-38.645-3.613 0-1.993 17.3-3.61 38.645-3.61 21.343 0 38.648 1.618 38.648 3.61M418.004 413.68c0 1.996-17.305 3.613-38.649 3.613-21.343 0-38.648-1.617-38.648-3.613 0-1.993 17.305-3.61 38.648-3.61 21.344 0 38.649 1.618 38.649 3.61" fill="#c7d9fa"/><path d="M461.012 159.46a63.74 63.74 0 0 0-.356-1.968" fill="none" stroke="#c7d9fa" stroke-linecap="round" stroke-linejoin="round"/><path d="M459.703 153.613c-6.894-23.48-28.879-21.215-48.746-21.175-21.39.046-352.512.73-352.512.73-33.273.066-30.054 48.105-4 48.05 14.98-.03 20.676 28.098-5.222 28.153-15.54.035-16.035 19.73-5.59 23.676" fill="none" stroke="#c7d9fa" stroke-linecap="round" stroke-linejoin="round" stroke-dasharray="3.993,3.993"/><path d="M45.55 233.566c.638.11 1.302.164 2 .164" fill="none" stroke="#c7d9fa" stroke-linecap="round" stroke-linejoin="round"/><path d="M51.637 232.82a4.795 4.795 0 0 1-3.918 5.528 4.785 4.785 0 0 1-5.524-3.914 4.786 4.786 0 0 1 3.914-5.528 4.791 4.791 0 0 1 5.528 3.914M465.727 161.613a4.794 4.794 0 0 1-5.57 3.856 4.794 4.794 0 0 1-3.856-5.57 4.791 4.791 0 0 1 5.57-3.856 4.794 4.794 0 0 1 3.856 5.57M100.45 197.84c-.688 3.89-1.7 7.691-2.93 11.441-2.649 8.09-6.31 15.88-10.008 23.57-1.93 4.02-9.762 13.317-13.961 15.09.488-10.492.531-22.742-.692-33.332-1.168-10.199 2.5-17.93-1.5-27.39-.507-1.207-1.039-2.418-1.57-3.63-1.988-4.5-3.957-9.019-4.578-13.87-.8-6.149 1.11-13.16 6.43-16.36 3.828-2.3 8.82-2.18 12.91-.37 4.09 1.812 7.37 5.12 9.86 8.831 6.968 10.36 8.23 23.739 6.038 36.02" fill="#4f91f3"/><path d="M81.848 163.867c7.832 11.055 8.511 23.938 9.191 37.469.676 13.531-2.574 27.238-9.258 39.023" fill="none" stroke="#0a42a3" stroke-linecap="round" stroke-linejoin="round" stroke-miterlimit="10"/><path d="M81.523 367.844c-5.488-4.848-11.043-9.774-15.097-15.871-3.531-5.313-5.813-11.344-8.89-16.93-1.997-3.613-4.349-7.094-5.505-11.059-1.156-3.96-.879-8.656 1.938-11.671 2.937-3.153 7.988-3.633 11.976-2.012 3.989 1.625 7.035 4.976 9.368 8.597a40.975 40.975 0 0 1 6.015 15.93c.781 5.121.582 10.356 1.379 15.473.738 4.773 2.344 9.355 4.363 13.722 1.832 3.965 6.477 11.032 7.664 15.094-3.285 1.645-10.87-9.203-13.21-11.273" fill="#00ab9e"/><use transform="translate(61 317)" xlink:href="#z" width="100%" height="100%"/><path d="M54.512 352.926c-4.551-1.801-10.633-2.54-13.555 1.394-2.445 3.29-1.18 7.953.512 11.692 1.422 3.152 3.234 6.36 6.242 8.07 2.055 1.172 4.46 1.527 6.809 1.805 6.546.777 13.144 1.16 19.738 1.14 7.64-.02 16.898 3.102 23.222 7.868-8.113-15.086-27.64-25.918-42.968-31.97" fill="#0054eb"/><path d="M46.523 362.73c5.797.247 11.645.657 17.211 2.301 5.692 1.684 27.578 11.727 31 16.004" fill="none" stroke="#0a42a3" stroke-linecap="round" stroke-linejoin="round" stroke-miterlimit="10"/><path d="M104.191 321.969c-5.925-9.278-16.066-15.758-26.984-17.223-8.062-1.086-16.355.422-24.309-1.254-8.359-1.75-15.898-7.137-20.265-14.484-4.363-7.352-5.5-16.535-3.047-24.723 1.871-6.223 6.14-12.117 12.32-14.113 3.367-1.086 7.051-.934 10.492-.106 3.176.762 6.13 2.09 8.848 3.82 6.223 3.942 11.246 10.005 15.024 16.442 3.433 5.852 11.894 14.961 17.652 20.887a309.043 309.043 0 0 0 5.828 5.832c3.953 4.906 2.105 19.07 4.441 24.922" fill="#51d1ba"/><path d="M40.11 268.16c19.367 8.746 40.492 20.203 54.23 36.418" fill="none" stroke="#00ab9e" stroke-linecap="round" stroke-linejoin="round" stroke-miterlimit="10"/><use mask="url(#A)" transform="translate(61 253)" xlink:href="#B" width="100%" height="100%"/><use mask="url(#C)" transform="translate(69 183)" xlink:href="#D" width="100%" height="100%"/><path d="M96.2 296.531c-4.56-23.808-6.958-27.476-4.954-33.445 2.555-7.606 1.121-15.254 3.531-22.906 2.41-7.653 4.051-15.883 2.106-23.668-.613-2.461-1.86-5.145-4.817-5.246-1.187-.04-2.343.437-3.246 1.207-2.277 1.941-2.851 4.851-3.375 7.629l-1.738 9.293c-.566 3.023-4.934 3.199-5.625.203-.004-.024-.012-.051-.016-.075-.558-2.515-.273-5.132.075-7.687.746-5.555 1.757-11.145 1.293-16.73-.559-6.758-3.602-13.72-10.184-16.532-2.336-.996-4.969-1.226-7.426-.594-6.875 1.766-8.652 8.48-7.644 14.215.71 4.035 2.601 7.746 4.316 11.47 4.18 9.089 1.113 17.429 1.691 27.417 1.598 27.57 36.012 55.45 36.012 55.45" fill="#7de6d4"/><path d="M65.54 195.188c3.39 16.94 6.815 34.003 13.397 49.976 1.93 4.688 2.876 10.852 14.043 23.594" fill="none" stroke="#00ab9e" stroke-linecap="round" stroke-linejoin="round" stroke-miterlimit="10"/><path d="M197.781 199.531c-3.511-4.011-6.75-8.09-10.16-12.02-2.21-2.55-4.492-5.042-6.973-7.402a69.105 69.105 0 0 0-3.84-3.43c-7.917-6.538-16.757-11.968-26.206-16.011-5.704-2.438-11.723-4.45-16.563-8.34-4.84-3.879-8.32-10.258-6.707-16.25 1.168-4.316 4.84-7.68 9.047-9.219 4.203-1.53 8.863-1.41 13.23-.468 12.2 2.629 22.391 11.398 29.32 21.77.122.179.25.37.372.558 5.078 7.75 8.629 16.37 11.719 25.152.988 2.82 1.93 5.66 2.859 8.488 1.402 4.23 5.703 12.98 3.902 17.172" fill="#4f91f3"/><path d="M141.973 136.574c13.308 2.535 22.73 11.348 32.601 20.63 9.871 9.28 17.031 21.413 20.383 34.538" fill="none" stroke="#0a42a3" stroke-linecap="round" stroke-linejoin="round" stroke-miterlimit="10"/><use mask="url(#E)" transform="translate(178 148)" xlink:href="#F" width="100%" height="100%"/><path d="M210.719 139.46c-1.125 4.99-4.145 9.302-6.797 13.677a105.996 105.996 0 0 0-3.93 7.074 107.52 107.52 0 0 0-8.86 24.223c-.644 2.75-1.007 5.449-.487 8.242-6.563-1.496-9.176-20.145-9.622-25.692-.785-9.98.915-20.207 5.024-29.351 1.797-4.016 4.11-7.953 7.68-10.524 3.554-2.57 8.601-3.472 12.37-1.23 2.274 1.348 3.727 3.59 4.438 6.137.692 2.379.723 5.035.184 7.445" fill="#51d1ba"/><path d="M188.129 187.172c-4.078-10.246-1.602-31.938 4.945-45.57 1.973-4.106 4.778-7.957 8.715-10.25" fill="none" stroke="#00ab9e" stroke-linecap="round" stroke-linejoin="round" stroke-miterlimit="10"/><use mask="url(#G)" transform="translate(196 132)" xlink:href="#H" width="100%" height="100%"/><path d="M248.566 182.863a21.28 21.28 0 0 1-1.699 5.524c-2.91 6.297-9.015 11.699-18.172 16.097 0 0-.507-9.96-.613-12.625-.45-11.418-12.84-17.738-20.68-26.062-3.992-4.246-7.02-9.61-7.582-15.418-.55-5.809 1.668-12.035 6.395-15.453 3.96-2.856 9.14-3.485 14.015-3.113 7.86.628 15.793 3.921 20.68 10.058.211.234.39.477.57.723 2.997 4.09 4.536 9.066 5.66 14.027 1.958 8.59 2.837 17.535 1.426 26.242" fill="#00ab9e"/><use transform="translate(209 140)" xlink:href="#I" width="100%" height="100%"/><path d="M392.063 256.516c5.468-9 2.675-20.579 4.578-30.934 1.464-7.965 5.894-15.344 12.23-20.379 3.98-3.164 9.567-5.418 14.063-3.05.972.511 2.132 1.234 3.066.66.563-.348.785-1.04.918-1.684 1.14-5.594-1.55-11.703.648-16.973 1.184-2.836 3.63-4.957 6.223-6.61a33.911 33.911 0 0 1 16.766-5.257c1.574-.066 3.21-.004 4.617.7 2.539 1.273 3.703 4.437 3.363 7.261-.34 2.824-1.898 5.348-3.625 7.605-5.742 7.508-14.156 13.985-15.262 23.372-.144 1.183-.144 2.441.403 3.503.527 1.024 1.504 1.758 2.054 2.77 1.77 3.25-1.644 6.934-4.984 8.531a28.654 28.654 0 0 1-9.715 2.688c-2.316.219-4.933.273-6.508 1.984-2.906 3.16.434 8.207-.18 12.457-.378 2.653-2.3 4.793-4.234 6.649a76.183 76.183 0 0 1-11.699 9.226c-3.394 2.176-6.988 4.098-10 6.781-3.012 2.684-5.445 6.317-5.64 10.344" fill="#51d1ba"/><path d="M399.27 247.762c.89-4.364 2.921-8.399 4.93-12.371 3.14-6.211 6.34-12.512 11.081-17.606 3.602-3.867 7.992-6.926 11.653-10.734a39.944 39.944 0 0 0 6.582-9.137c.949-1.809 1.77-3.71 3.046-5.305 1.516-1.89 3.594-3.238 5.399-4.855a23.185 23.185 0 0 0 5.723-7.89" fill="none" stroke="#00ab9e" stroke-linecap="round" stroke-linejoin="round" stroke-miterlimit="10"/><path d="M470.57 262.762c-1.23 4.738-3.062 9.43-6.199 13.187-2.172 2.59-4.871 4.64-7.82 6.313-1.52.867-3.121 1.629-4.73 2.308a56.76 56.76 0 0 1-19.77 4.38c-9.88.37-20.043-1.81-29.52 1.01-4.351 1.29-8.36 3.642-11.652 6.75a28.448 28.448 0 0 0-5.23 6.61l1.292-8.199c2.391-8.82 4.829-17.8 9.707-25.531 3.153-5.012 7.243-9.371 11.594-13.38 6.95-6.42 14.656-12.07 23.168-16.198 6.88-3.344 14.52-5.692 22.121-4.762 7.59.918 15.051 5.719 17.418 12.988 1.52 4.672.86 9.774-.379 14.524" fill="#4f91f3"/><path d="M393.402 288.879c7.262-10.742 18.133-18.996 30.434-23.106 7.664-2.554 15.766-3.53 23.527-5.77 7.766-2.237 15.508-6.042 20.059-12.718" fill="none" stroke="#0a42a3" stroke-linecap="round" stroke-linejoin="round" stroke-miterlimit="10"/><path d="M398.184 367.648c.433-11.027 6.132-21.21 13.058-29.804 5.774-7.168 12.742-13.73 21.348-16.996 2.7-1.024 5.656-1.711 8.457-1.024 2.8.688 5.34 3.086 5.39 5.969.043 2.43-1.59 4.555-3.308 6.277-5.66 5.668-12.973 9.305-19.828 13.446-11.778 7.117-22.973 16.62-27.649 29.57" fill="#51d1ba"/><path d="M402.543 357.996c7.2-16.058 25.836-30.414 38.129-32.21" fill="none" stroke="#00ab9e" stroke-linecap="round" stroke-linejoin="round" stroke-miterlimit="10"/><path d="M393.684 376.418c-.098-1.848 5.93-6.68 7.285-7.914 7.527-6.824 16.476-11.844 25.922-14.813 3.824-1.199 7.886-2.07 11.714-1.148 3.825.926 7.333 4.059 7.711 8.184.364 4.003-2.324 7.918-5.75 9.855-3.425 1.938-7.433 2.23-11.25 2.008-5.906-.348-11.703-1.813-17.625-1.77-5.93.047-14.246.649-18.007 5.598" fill="#00ab9e"/><use transform="translate(399 360)" xlink:href="#J" width="100%" height="100%"/><use mask="url(#K)" transform="translate(237 141)" xlink:href="#L" width="100%" height="100%"/><path d="M290.457 182.36c9.043-3.215 18.438-5.774 26.656-10.727 2.489-1.496 4.883-3.238 6.649-5.543 1.765-2.305 2.847-5.242 2.457-8.117-.403-2.922-2.274-5.723-1.64-8.606.413-1.902 1.839-3.387 2.929-4.996 2.594-3.832 3.363-8.844 2.047-13.277-1.418-4.766-4.989-8.578-7.024-13.114a21.88 21.88 0 0 1-1.691-11.902c-7.586.102-14.512 4.246-21.969 5.629-5.707 1.059-11.644.484-17.3 1.781-10.313 2.371-18.743 11.45-20.348 21.91-4.786-.82-9.934.903-13.254 4.442-3.535 3.762-5.528 9.105-5.203 14.258 2.328 37.43 23.757 56.957 23.757 56.957s20.485-27.473 23.934-28.696" fill="#7de6d4"/><path d="M270.23 182.098c-.94-9.235 2.286-18.36 5.993-26.871 3.609-8.293 7.765-16.422 13.347-23.54 5.578-7.12 12.668-13.226 21.035-16.656M278.277 120.695c-.949 8.23-.285 18.149 1.86 26.153M281.676 143.898c9.402-6.03 23.863-9.691 35.015-9.05M258.688 145.438c11.316 4.773 11.78 21.414 12.085 26.14M273.86 161c8.66-6.215 21.171-8.082 30.382-5.766M297.484 116.422c-2.605 3.21-3.254 7.031-2.992 9.676M296.957 123.75c3.992-2.043 9.328-2.512 15.04-1.082" fill="none" stroke="#00ab9e" stroke-linecap="round" stroke-linejoin="round" stroke-miterlimit="10"/><path d="M74.297 141.852c1.066-.055 8.32-5.43 11.113-7.239.785-.511 1.586-1.047 2.133-1.804.55-.758.805-1.801.406-2.645-.496-1.055-1.32-2.101-3.394-2.098-3.618.008-4.871 1.196-6.63 3.012-5.812 6.012-3.628 10.774-3.628 10.774M106.82 163.523c3.16 1.422 6.535 2.836 9.97 2.395 1.331-.168 2.784-.773 3.23-2.043.378-1.082-.145-2.324-1.004-3.086-.86-.762-1.993-1.129-3.106-1.402-4.207-1.024-10.11-.457-14.273.726 0 0 3.3 2.563 5.183 3.41M127.625 116.871c-1.41-.89-2.965-2.082-2.965-3.746 0-1.672 1.742-2.945 3.414-2.953 1.672-.008 3.223.902 4.477 2.004 5.316 4.668 4.652 9.988 4.652 9.988s-8.012-4.3-9.578-5.293M131.816 102.637c-1.238-.532-2.515-1.172-3.238-2.305-.355-.55-.555-1.25-.336-1.867.363-1.035 1.012-1.961 3.617-1.492 8.25 1.5 10.047 7.148 10.047 7.148s-7.902-.543-10.09-1.484M155.984 115.137c3.309-.285 6.727-1.934 8.813-4.52.789-.976 1.508-2.055 1.77-3.277.265-1.227-.016-2.633-.965-3.453-1.16-.996-2.997-.836-4.274.004-1.273.843-2.094 2.218-2.758 3.593-.886 1.836-2.586 7.653-2.586 7.653" fill="#4a47ca"/><path d="M96.898 235.797c-8.015-7.063-16.027-14.125-24.039-21.188-4.27-3.765-8.629-7.64-11.336-12.648-5.812-10.77-2.46-24.762 5.391-34.145 7.852-9.386 19.352-14.93 30.906-18.964 11.555-4.032 23.582-6.864 34.594-12.196 6.906-3.347 13.852-8.332 15.746-15.77 1.14-4.472.18-9.433-2.539-13.16-2.723-3.73-7.16-6.152-11.77-6.425M161.582 107.453c-2.187 6.723-10.715 10.813-14.61 16.637" fill="none" stroke="#0a42a3" stroke-linecap="round" stroke-linejoin="round" stroke-miterlimit="10"/><path d="M130.965 115.188c1.68 1.773 3.691 3.238 5.156 5.19 3.094 4.13 3.352 10.837-1.226 15M87.816 152.824c7.07 5.446 16.364 9.078 25.278 9.422M71.633 162.746c-3.254-9.598.293-21.098 8.387-27.191" fill="none" stroke="#0a42a3" stroke-linecap="round" stroke-linejoin="round" stroke-miterlimit="10"/><path d="M330.047 122.191c-.383-1.187-.363-2.648.515-3.535.696-.703 1.864-1.02 2.77-.62 7.027 3.093 6.27 14.058 6.27 14.058s-6.668-.965-9.555-9.903M329.875 142.734c-4.547 8.215 11.617 7.59 17.445 2.75 0 0-13.53-9.824-17.445-2.75M350.309 122.813c-1.094-1.504-1.485-3.743-.29-5.172.891-1.063 2.438-1.391 3.801-1.13 1.36.262 3.399 1.524 4.27 2.606 5.32 6.613 2.82 13.09 2.82 13.09s-8.8-6.93-10.601-9.394M414.496 143.164c-.394-1.281-.3-2.844.692-3.738.628-.567 1.523-.774 2.367-.707.843.062 1.648.37 2.418.722 1.648.75 2.93 2.067 3.718 3.7 2 4.117.645 9.21.645 9.21s-8.863-6-9.84-9.187M394.305 158.242c-2.856-2.508-7.235-3.25-10.715-1.722-.887.386-1.727.937-2.293 1.718-1.277 1.766-.832 4.348.496 6.078 1.324 1.73 3.332 2.782 5.316 3.684 3.598 1.633 9.18 1.957 13.008 2.934 0 0-.015-7.598-5.812-12.692" fill="#4a47ca"/><path d="M335.086 123.953c2.375 7.785 9.105 13.656 16.598 16.832 7.492 3.18 15.746 4.016 23.867 4.543 8.12.524 16.34.785 24.191 2.918 7.656 2.078 15.278 6.406 18.563 13.625 3.996 8.785.457 19.293-5.157 27.145-5.613 7.855-13.171 14.183-18.601 22.164-2.492 3.664-4.574 7.957-4.07 12.36.671 5.87 5.617 10.194 10.21 13.905M353.805 121.098c5.382 5.957 9.683 15.265 10.73 23.222" fill="none" stroke="#0a42a3" stroke-linecap="round" stroke-linejoin="round" stroke-miterlimit="10"/><path d="M335.707 144.094c3.078.82 6.195 1.64 9.379 1.648 3.184.008 6.871-1.754 9.16-3.969M419.762 143.648c2.883 2.782 4.633 6.704 4.785 10.711.148 4.004-2.074 8.86-4.738 11.848M389.594 161.824c5.761 5.301 10.773 9.586 17.176 14.09 2.921 2.055 8.722 4.688 11.296 4.012" fill="none" stroke="#0a42a3" stroke-linecap="round" stroke-linejoin="round" stroke-miterlimit="10"/><use mask="url(#M)" transform="translate(389 274)" xlink:href="#N" width="100%" height="100%"/><path d="M440.2 278.438c4.378.351 8.866 1.21 12.484 3.699 3.617 2.492 6.16 6.941 5.316 11.25-.984 5.023-6.172 8.285-11.25 8.906-5.078.617-10.152-.781-15.16-1.813a108.258 108.258 0 0 0-33.781-1.546c-2.805.316-5.465.87-7.922 2.308-.79-6.695 15.898-15.41 20.968-17.683 9.149-4.098 19.344-5.918 29.344-5.121" fill="#51d1ba"/><path d="M394.227 297.023c8.285-7.28 29.55-12.226 44.586-10.632 4.53.48 9.101 1.832 12.582 4.77" fill="none" stroke="#00ab9e" stroke-linecap="round" stroke-linejoin="round" stroke-miterlimit="10"/><path d="M378.754 215.223l80.887-.168c9.492-.02 17.203 7.66 17.218 17.152.024 9.492-7.656 17.203-17.148 17.223l-55.328.113M134.012 274.613l-56.57.117c-5.356.012-9.692 4.364-9.68 9.72.011 5.359 4.363 9.69 9.722 9.683l16.493-.035" fill="none" stroke="#0a42a3" stroke-linecap="round" stroke-linejoin="round" stroke-miterlimit="10" stroke-dasharray="4"/><path d="M43.723 318.418c-19.38.043-19.782 28.945 4.875 28.898 24.66-.054 348.129-.718 363.382-.75 15.25-.035 16.864-23.832-1.996-23.793-37.523.079-38.77-17.82-17.933-17.863" fill="none" stroke="#c7d9fa" stroke-linecap="round" stroke-linejoin="round" stroke-miterlimit="10" stroke-dasharray="4"/><path d="M48.258 317.613a4.79 4.79 0 1 1-9.442 1.613 4.79 4.79 0 0 1 9.442-1.613" fill="#4f91f3"/><path d="M401.34 305.04a4.79 4.79 0 1 1-5.524-3.915 4.785 4.785 0 0 1 5.524 3.914" fill="#0a42a3"/><use mask="url(#O)" transform="translate(97 174)" xlink:href="#P" width="100%" height="100%"/><path d="M400.664 384.805l-300.887.62a7.269 7.269 0 0 1-7.285-7.253l-.41-199.336a7.268 7.268 0 0 1 7.254-7.281l300.887-.621a7.268 7.268 0 0 1 7.285 7.253l.41 199.333a7.27 7.27 0 0 1-7.254 7.285" fill="#fff"/><path d="M399.734 170.938l-299.601.617a7.908 7.908 0 0 0-7.895 7.93l.012 6.878 315.426-.652-.012-6.879a7.908 7.908 0 0 0-7.93-7.895" fill="#0054eb"/><path d="M100.492 385.426l45.27-.094-.41-199.078-53.18.11.394 191.175c.008 4.363 3.559 7.895 7.926 7.887" fill="#c7d9fa"/><path d="M400.313 170.934h-.016l-300.887.62a7.269 7.269 0 0 0-7.254 7.286l.41 199.332a7.27 7.27 0 0 0 7.27 7.254h.012l300.89-.621a7.268 7.268 0 0 0 7.254-7.282l-.41-199.336a7.27 7.27 0 0 0-7.27-7.253m0 2a5.28 5.28 0 0 1 5.27 5.257l.41 199.336c.008 2.903-2.351 5.27-5.258 5.278l-300.898.62a5.277 5.277 0 0 1-5.27-5.257l-.41-199.332a5.244 5.244 0 0 1 1.535-3.73 5.237 5.237 0 0 1 3.723-1.551l300.883-.621h.015" fill="#0054eb"/><path d="M138.125 370.207l-34.883.07a2.787 2.787 0 0 1-2.793-2.78v-.345a2.787 2.787 0 0 1 2.778-2.793l34.886-.07a2.787 2.787 0 0 1 2.793 2.781v.344a2.787 2.787 0 0 1-2.781 2.793M133.93 235.148l-29.7.063a5.11 5.11 0 0 1-5.117-5.098l-.062-29.699a5.11 5.11 0 0 1 5.097-5.117l29.7-.063a5.108 5.108 0 0 1 5.117 5.098l.062 29.7a5.108 5.108 0 0 1-5.097 5.116" fill="#fff"/><path d="M261.082 324.121l-103.48.215a3.642 3.642 0 0 1-3.645-3.637l-.004-.449a3.642 3.642 0 0 1 3.633-3.648l103.48-.211a3.64 3.64 0 0 1 3.649 3.629v.453a3.64 3.64 0 0 1-3.633 3.648M255.102 206.223l-81.774.168a3.64 3.64 0 0 1-3.648-3.633v-.45a3.64 3.64 0 0 1 3.633-3.648l81.773-.168a3.64 3.64 0 0 1 3.648 3.63v.452a3.64 3.64 0 0 1-3.632 3.649M384.371 288.922l-109.031.226a3.644 3.644 0 0 1-3.649-3.632v-.454a3.644 3.644 0 0 1 3.633-3.648l109.028-.223a3.64 3.64 0 0 1 3.648 3.633l.004.453a3.64 3.64 0 0 1-3.633 3.645M261.113 340.102l-103.476.214a3.64 3.64 0 0 1-3.649-3.632v-.45a3.64 3.64 0 0 1 3.633-3.648l103.477-.215a3.642 3.642 0 0 1 3.648 3.633v.453a3.638 3.638 0 0 1-3.633 3.645M261.148 356.086l-103.48.215a3.638 3.638 0 0 1-3.645-3.633v-.45a3.636 3.636 0 0 1 3.63-3.648l103.48-.215a3.642 3.642 0 0 1 3.648 3.633v.453a3.638 3.638 0 0 1-3.633 3.645M382.156 366.512l-104.281.215a6.015 6.015 0 0 1-6.027-6l-.09-44.79a6.006 6.006 0 0 1 6-6.023l104.285-.215a6.011 6.011 0 0 1 6.023 6l.09 44.79a6.011 6.011 0 0 1-6 6.023M109.54 178.8a2.551 2.551 0 0 1-2.548 2.555 2.545 2.545 0 0 1-2.55-2.542 2.546 2.546 0 0 1 2.542-2.555 2.55 2.55 0 0 1 2.555 2.543M120.328 178.777a2.548 2.548 0 1 1-5.096.014 2.548 2.548 0 0 1 5.096-.014M131.121 178.758a2.545 2.545 0 0 1-2.543 2.55 2.546 2.546 0 0 1-2.555-2.542 2.55 2.55 0 0 1 2.543-2.555 2.554 2.554 0 0 1 2.555 2.547M165.719 202.54a7.37 7.37 0 0 1-7.356 7.386 7.37 7.37 0 0 1-7.386-7.356 7.374 7.374 0 0 1 7.355-7.386 7.374 7.374 0 0 1 7.387 7.355" fill="#c7d9fa"/><path d="M136.004 241.379l-32.649.066a1.374 1.374 0 0 1-1.378-1.37v-.169c0-.761.613-1.375 1.37-1.379l32.65-.066c.757 0 1.374.613 1.374 1.371v.172a1.368 1.368 0 0 1-1.367 1.375M136.016 247.613l-32.649.067a1.374 1.374 0 0 1-1.375-1.371v-.172a1.368 1.368 0 0 1 1.367-1.375l32.649-.067a1.377 1.377 0 0 1 1.379 1.371v.168c0 .762-.614 1.375-1.371 1.38" fill="#fff"/><path d="M173.398 260.793l-9.234.094.066 38.68-7.964.015a5.093 5.093 0 0 1-5.102-5.078l-.144-71.528a5.144 5.144 0 0 1 5.132-5.156l17.145-.043zm0 0" fill="#c7d9fa"/><path d="M233.285 217.66h-.012l-76.253.16a6.01 6.01 0 0 0-6 6.024l.144 69.738a6.01 6.01 0 0 0 6.012 5.996h.011l76.254-.156a6.012 6.012 0 0 0 6-6.024l-.144-69.738a6.01 6.01 0 0 0-6.012-6m0 0v1a5.018 5.018 0 0 1 5.012 5.004l.144 69.734a5.015 5.015 0 0 1-5 5.024l-76.265.156a5.017 5.017 0 0 1-5.012-5l-.144-69.738a5.016 5.016 0 0 1 5-5.02l76.257-.16.008-1M360.629 275.059L258.906 252.07a6.011 6.011 0 0 1-4.539-7.187l11.446-50.63a6.011 6.011 0 0 1 7.187-4.538l101.723 22.988a6.017 6.017 0 0 1 4.535 7.192l-11.442 50.628a6.006 6.006 0 0 1-7.187 4.536" fill="#c7d9fa"/><path d="M163.762 412.762l-14.23.027-3.485-18.133 21.125-.043zm0 0" fill="#0054eb"/><path d="M149.988 394.648c.004 1.48-.281 3.965.703 4 .989.036.579-2.355 1.704-2.293.714.04-.336 7.88 2.375 8.067 1.863.129 1.523-3.844 1.714-6.332.13-1.68 2.282-1.352 2.301-.238.02 1.246-.058 2.078 0 3.496.102 2.367 3.738 1.738 3.61-1.422-.13-3.164-.008-5.301-.008-5.301zm0 0" fill="#c7d9fa"/><path d="M146.582 405.602c-.293 0-.574-.028-.844-.09-1.047-.23-1.781-.781-2.187-1.637-1.45-3.078 2.37-8.84 2.52-9.098l.199 1.04c-.036.058-3.356 5.011-2.051 7.777.308.656.863 1.066 1.687 1.25.227.05.465.074.715.07 5.125-.008 13.887-9.562 13.984-9.672.36-.43 1.028-.023.79.336-.403.461-9.305 10.012-14.813 10.024" fill="#0a213f"/><use mask="url(#Q)" transform="translate(255 157)" xlink:href="#R" width="100%" height="100%"/><path d="M296.148 154.438c-20.23-.774-48.078 14.187-38.199 50.765l3.84-1.77c3.367-27.195 9.668-31.902 20.363-31.804l25.09-.05c6.2.913 17.774 6.417 19.465 28.187l5.945-.012c.485-15.727-3.32-44.047-36.504-45.316" fill="#ee8228"/><path d="M292.008 155.031l-3.004 6.606s.36 3.718 4.008 3.64c3.648-.074 4.14-1.761 4.14-1.761l.473-7.582zm0 0" fill="#ffb8a1"/><path d="M307.453 149.527c-3.426 6.055-4.941 7.938-9.422 8.848-5.8 1.18-12.3-2.73-9.277-12.375 2.465-7.86 6.195-6.648 9.848-6.352 3.656.297 12.55 3.336 8.851 9.88" fill="#ffb8a1"/><path d="M293.84 144.75c-.91-.477-2.082-.074-2.79.672-.726.766-1.077 1.91-.769 2.918-1.398.023-2.629 1.394-2.496 2.793-.96-2.235-.441-4.559-.629-6.848-.191-2.285.063-4.773 1.543-6.523.606-.719 1.39-1.27 2.219-1.711 3.156-1.676 7.121-1.735 10.32-.149.664.332 2.325 1.375 4.645.817 4.418-1.07 7 1.918 4.347 4.719.852.308 1.786.687 2.172 1.507.098.211.153.473.02.664-.094.133-.254.2-.406.25-.743.25-1.551.313-2.325.184.297.254 1.938.352 2.43 1.305 1.32 2.539-3.898 1.257-4.695 1.004.906.171 3.293 2.074 2.527 3.378-.148.258-3.367 2.133-6.75-1.796-.789-.914-1.77-1.758-2.933-2.07-.915-.243-1.872.093-2.758.429-.645.242-2.293 1.246-2.77.648-.52-.656.153-1.668-.902-2.191" fill="#0a213f"/><path d="M327.348 199.77c-.895 3.085-1.805 3.394-.72 3.886 1.09.492 1.97-1.238 1.97-1.238l5.02.996s-1.134-3.258-1.927-3.652c-.789-.395-4.343.008-4.343.008M261.79 203.434c.655 1.629.835 1.636 1.75 3.593 1.745 3.743-2.345 9.657-4.884 3.2-.695-1.77-.707-5.024-.707-5.024zm0 0" fill="#ffb8a1"/><path d="M300.984 136.43c3.43.187 7.649-2.235 10.336.875.25.285.75-.094.528-.407-2.567-3.687-7.336-.945-10.864-1.039-.367-.008-.363.551 0 .57M302.36 134.54c-2.344.405-4.602-.7-6.95-.333-1.914.3-3.613 1.281-5.058 2.535-.368.32.117.953.527.68 2.02-1.328 3.96-2.477 6.48-2.293 1.829.133 3.387.676 5.2.133.472-.14.273-.805-.2-.723M289.023 137.738c-1.652 1.028-2.601 2.399-2.796 4.371-.141 1.418-.184 4.676 1.246 5.473.343.191.703-.258.422-.543-.918-.934-.997-3.441-.934-4.625.102-1.812.86-3.191 2.297-4.273.234-.172.027-.567-.235-.403M314.395 143.367c-.848-1.469-3.024-2.773-4.692-1.836-.262.145-.137.547.152.551.727.016 1.395-.078 2.114.14a3.676 3.676 0 0 1 1.972 1.41c.192.27.625.032.454-.265" fill="#0a213f"/><path d="M203.117 295.918c10.606 3.895 19.817 16.062 17.703 24.906-2.39 9.989-9.28 14.297-9.28 14.297l-2.173-4.008s5.512-8.617 5.031-12.683c-.765-6.516-8.992-10.864-8.992-10.864zm0 0" fill="#0a42a3"/><path d="M177.004 408.64s-6.512 2.63-8.14 4.114l12.902-.023-.008-4.102zm0 0M205.516 408.39s1.847 2.141 2.187 4.29l-8.8.015c.148-1.484.78-2.906 1.64-4.297zm0 0" fill="#0a213f"/><path d="M206.05 408.582l-6.01.008c.12-7.078-1.34-31.21-2.75-49.25-.83-10.578-1.65-19.078-2.13-20.8l3.219-.708 12.152-2.703c2.078 9.5-2.722 53.121-4.48 73.453" fill="#027d75"/><path d="M183.96 338.16c-4.687 7.383-5.898 60.742-7.862 70.633l5.703.32s6.543-33.64 20.488-71.457zm0 0" fill="#00978f"/><use mask="url(#S)" transform="translate(195 337)" xlink:href="#T" width="100%" height="100%"/><path d="M183.96 338.16c-4.687 7.383-5.898 60.742-7.862 70.633l5.703.32s6.543-33.64 20.488-71.457zm0 0" fill="#00978f"/><path d="M187.543 278.59s-3.648 13.906 5.465 13.887l-.54 3.554 6.923.758-1.496-4.953s1.367-8.742 1.46-10.32c.172-2.95-8.09-8.145-11.812-2.926" fill="#ffb8a1"/><path d="M165.027 274.352l-2.687.008-.024-11.352 2.684-.004zm0 0" fill="#0a213f"/><path d="M171.367 262.988l-15.422.031a1.954 1.954 0 0 1-1.957-1.949v-.402a1.951 1.951 0 0 1 1.95-1.957l15.421-.031a1.951 1.951 0 0 1 1.957 1.949l.004.402a1.955 1.955 0 0 1-1.953 1.957" fill="#0054eb"/><path d="M161.59 277.316c-.07-2.574-2.195-1.898-1.024-6.097.723-2.598 6.086.414 5.418 2.215-.668 1.804-1.437 4.652-1.437 4.652zm0 0" fill="#ffb8a1"/><path d="M193.074 295.21c-13.629.903-14.527 5.497-20.625 4.778-9.031-1.062-7.449-17.828-6.336-23.84l-5.39.008s-9.72 38.196 20.98 31.133c-1.18 6.692 6.453 17.617-.95 30.875 11.657 3.168 22.532 3.946 31.84-.062-1.628-2.196 3.345-24.387-6.39-40.36-1.902-3.12-12.129-2.593-13.129-2.53" fill="#0054eb"/><path d="M193.074 295.21c-13.629.903-14.527 5.497-20.625 4.778-9.031-1.062-7.449-17.828-6.336-23.84l-5.39.008s-9.72 38.196 20.98 31.133c-1.18 6.692 6.453 17.617-.95 30.875 11.657 3.168 22.532 3.946 31.84-.062-1.628-2.196 3.345-24.387-6.39-40.36-1.902-3.12-12.129-2.593-13.129-2.53" fill="#0054eb"/><path d="M191.195 281.258c.89.226 1.926.394 2.399 1.148.308.492.289 1.102.258 1.672.164-.598.824-1.027 1.464-.953.641.074 1.176.645 1.188 1.262.004.289-.09.57-.2.843-.265.672-.605 1.32-1.011 1.926 1.113.41 2.043 3.668 2.602 4.68 1.875-.469 6.039-2.078 6.402-8.711.168-3.086-.774-6.785-4.125-8.844-2.367-1.453-6.293-1.472-9.004-.781-2.195.563-5.7 2.758-4.066 5.32.824 1.297 2.628 2.063 4.093 2.438" fill="#ee8228"/><path d="M202.871 277.031c1.27-.422 2.879-.195 3.64.864.594.828.544 1.914.735 2.898.094.477.262.965.629 1.293.441.39 1.082.484 1.684.516 1.468.078 2.953-.106 4.398.136 1.45.246 2.926 1.067 3.34 2.418.226.746.101 1.567.375 2.301.41 1.102 1.582 1.727 2.605 2.367a16.919 16.919 0 0 1 5.352 5.328c.848 1.352 1.5 2.848 1.601 4.418.102 1.575 1.235 3.649.934 5.196-.324 1.668-1.969 3.925-5.21 4.968-5.602 1.805-7.38 2.586-12.747-.605-.648-.383-1.91-1.695-2.496-2.16-.461-.367-.75-.899-.91-1.453-.45-1.54.066-3.2.87-4.602.806-1.402 1.892-2.64 2.712-4.035.492-.836.89-1.77.844-2.727-.016-.359-.106-.734-.368-.996-.226-.222-.55-.328-.867-.39-1.18-.23-2.476.015-3.547-.516-1.039-.516-1.605-1.77-1.293-2.848.211-.722.758-1.332.914-2.062.223-1.059-.437-2.145-1.355-2.762-.922-.617-2.055-.855-3.16-1.039-.547-.09-1.117-.18-1.563-.496-.547-.395-.797-1.078-.789-1.734.024-2.075 1.711-3.621 3.672-4.278" fill="#ee8228"/><path d="M201.867 282.621c6.742 1.461-1.77 7.852 1.797 10.906 1.016.875 2.2.598 3.39.766 4.579.633 2.075 3.738 1.762 6.176-.046.367.563.445.645.09.39-1.684 1.937-3.743 1.137-5.532-.7-1.578-2.442-1.394-3.868-1.437-1.785-.055-3.757.004-3.09-3.555.153-.793.786-1.594 1.09-2.34.356-.855.594-1.707.399-2.644-.328-1.59-1.652-2.524-3.164-2.778-.227-.035-.328.297-.098.348M187.973 274.367c5.199-2.637 10.382-2.11 14.773 1.762.297.262.7-.14.438-.438-3.856-4.336-10.707-5.101-15.356-1.566-.14.11-.023.328.145.242" fill="#ee8228"/><path d="M362.633 290.68l-2.254 4.53 5.508 2.255.59-5.219zm0 0" fill="#ffb8a1"/><path d="M365.96 275.93c-12.491 5.437-7.374 18.617.228 17.066 3.703-.75 5.578-12.668 5.578-12.668zm0 0" fill="#ffb8a1"/><path d="M370.11 274.055c-.41-.766-.801-1.578-1.477-2.121-.676-.547-1.75-.72-2.387-.125-.84.777-.348 2.242.504 3.011-.734.09-1.602-.418-2.145.086-.406.383-.265 1.059-.03 1.567a6.973 6.973 0 0 0 2.558 2.933c-.633.36-1.367 1.055-.988 1.676.109.172.285.293.386.465.242.406.008.918-.234 1.32a23.87 23.87 0 0 1-1.274 1.89c.43-.59 1.477-.347 1.79.313.316.657.043 1.469-.446 2.012-.27.3-.613.55-1.008.645-.343.078-1.855 4.757-.675 5.675 1.46 1.133 6.425.149 7.144-1.133.715.782 1.766 1.372 2.809 1.165 1.039-.207 1.832-1.489 1.27-2.387 1.124.414 2.488.047 3.257-.871.766-.922.879-2.332.266-3.36.613-.187.738-1.015.582-1.632a3.765 3.765 0 0 0-2.586-2.657c.633.008 1.133-.625 1.164-1.258.031-.632-.297-1.23-.695-1.718-1.176-1.446-2.563-1.836-4.297-2.055-1.75-.219-2.715-2.004-3.489-3.441" fill="#4a47ca"/><path d="M358.402 407.773s-7.308 3.508-8.289 4.602c0 0 14.38.648 15.508-.031 1.125-.68-2.305-4.582-2.305-4.582zm0 0M385.594 403.805s-6.426 4.945-7.156 6.218c0 0 15.16-2.25 15.16-3.238 0-.992-3.2-4.008-3.2-4.008zm0 0" fill="#0a213f"/><path d="M365.469 340.012c-.27 1.484-10.278 40.988 18.355 64.675l8.293-1.902s-9.652-9.055-14.199-25.348c-4.3-15.406-.887-16.917 1.695-25.402 2.852-9.39.73-16.21.73-16.21zm0 0" fill="#d77328"/><path d="M351.785 339.89c-4.539 10.848-12.332 47.817 4.652 68.633l8.481-.02s-6.68-7.323-7.426-24.308c-.746-16.988 3.57-24.449 6.617-30.05 3.047-5.61 5.868-15.133 5.868-15.133zm0 0" fill="#ee8228"/><path d="M345.8 272.64c-2.253 7.942-2.995 22.622 8.294 28.532l7.554-1.84s-13.62-7.14-10.703-25.184zm0 0" fill="#0a42a3"/><path d="M324.988 268.574l5.867-.726s-.707 24.625 27.73 26.699C380.294 296.129 382 336.863 382 336.863c-7 4.715-18.746 6.14-33.797 5.063 0 0 .965-29.063-1.43-37.02 0 0-23.625-7.433-21.785-36.332" fill="#0054eb"/><path d="M317.82 264.102c-.992 1.152 3.153 2.609 7.172 4.472l5.145-.636s.058-1.028-.004-2.098c-.067-1.074-.602-1.684-1.211-.762-.614.918-3.215 1.227-4.442.39-1.222-.84-5.668-2.515-6.66-1.366M345.8 272.64c-1.886-1.855-1.386-1.742-1.386-1.742l5.75 1.301s1.266-2.808 2.336-2.887c1.074-.078-.805 1.934-.375 2.68.43.746-1.18 2.156-1.18 2.156zm0 0" fill="#ffb8a1"/><path d="M373.336 276.766c1.18.3 2.387.421 3.36 1.226.968.797 1.406 2.168.706 3.281-.328.52.453.93.805.47.895-1.169.652-2.774-.25-3.876-1.035-1.273-2.965-1.8-4.55-1.629-.282.031-.387.45-.071.528M378.535 287.434c.781.46 1.438 1.203 1.106 2.168-.309.89-1.215 1.425-1.942 1.933-.351.246-.05.785.336.582 1.082-.57 2.227-1.375 2.395-2.687.144-1.145-.625-2.02-1.578-2.535-.352-.192-.664.335-.317.539M365.406 293.395c2.649 1.648 6.395 1.382 8.586-.938.27-.285-.094-.824-.441-.57-2.395 1.777-5.114 2.351-7.93 1.136-.246-.105-.457.223-.215.372" fill="#4a47ca"/><path d="M378.883 278.508c1.523 1.445-.004 3.426-.977 4.668-.215.273.125.644.39.394.872-.816 1.74-1.707 1.856-2.957.09-.937-.297-1.832-1.132-2.285-.11-.058-.235.086-.137.18" fill="#4a47ca"/><path d="M209.727 95.824l-2.344-5.73 22.629-8.594zm0 0" fill="#0a42a3"/><path d="M210.867 92.293L230.012 81.5l-13.328 13.535zm0 0M202.203 87.762l27.809-6.262-22.633 8.594zm0 0" fill="#4f91f3"/><path d="M210.867 92.293l-1.14 3.531 3.453-2.441zm0 0" fill="#0054eb"/><path d="M207.066 95.055c-5.906-.996-13.925 4.976-10.476 11.199 1.176 2.121 7.23 1.2 6.781-1.14-.215-1.122-1.59-1.598-2.723-1.47-6.605.758-6.867 6.293-6.574 7.704 1.512 7.277 12.668 4.816 16.418 3.789" fill="none" stroke="#c7d9fa" stroke-linecap="round" stroke-linejoin="round" stroke-miterlimit="10" stroke-dasharray="4"/></g></svg>